<svg width="660" height="450" viewBox="0 0 660 450" fill="none" xmlns="http://www.w3.org/2000/svg">
<mask id="mask0" mask-type="alpha" maskUnits="userSpaceOnUse" x="0" y="0" width="660" height="450">
<rect width="660" height="450" fill="#F8F8F8"/>
</mask>
<g mask="url(#mask0)">
<path fill-rule="evenodd" clip-rule="evenodd" d="M142.398 195.589C135.145 202.948 127.978 210.221 120.846 217.135C116.801 221.056 112.706 224.985 108.59 228.933C63.2625 272.422 15.5679 318.18 7.72869 379.73C-0.740582 446.227 38.7974 508.113 76.7481 563.37C110.603 612.663 155.998 652.145 210.978 675.666C263.22 698.015 320.389 700.53 376.506 691.608C432.593 682.69 484.023 660.013 528.838 625.128C579.104 585.999 633.348 543.197 647.07 480.992C661.094 417.423 643.34 345.846 601.44 296.025C578.836 269.148 544.512 262.002 509.499 254.714C484.427 249.494 459.001 244.2 437.274 231.535C414.237 218.106 395.777 196.563 377.637 175.394C350.608 143.851 324.29 113.137 284.599 111.33C227.974 108.754 183.784 153.593 142.398 195.589Z" fill="#216CFF"/>
<path fill-rule="evenodd" clip-rule="evenodd" d="M342.983 69.1691C413.379 67.0192 486.076 85.122 535.328 137.603C584.16 189.637 599.391 265.453 595.392 338.129C591.628 406.517 563.367 471.155 514.457 516.897C468.011 560.335 405.027 567.282 342.983 574.192C269.609 582.363 186.547 609.688 130.492 559.658C72.9076 508.262 72.5304 416.913 78.4961 338.129C83.937 266.274 112.094 199.347 161.586 149.017C210.43 99.3481 274.781 71.252 342.983 69.1691Z" fill="#C4C4C4"/>
<path fill-rule="evenodd" clip-rule="evenodd" d="M342.983 69.1691C413.379 67.0192 486.076 85.122 535.328 137.603C584.16 189.637 599.391 265.453 595.392 338.129C591.628 406.517 563.367 471.155 514.457 516.897C468.011 560.335 405.027 567.282 342.983 574.192C269.609 582.363 186.547 609.688 130.492 559.658C72.9076 508.262 72.5304 416.913 78.4961 338.129C83.937 266.274 112.094 199.347 161.586 149.017C210.43 99.3481 274.781 71.252 342.983 69.1691Z" fill="url(#paint0_linear)"/>
</g>
<defs>
<linearGradient id="paint0_linear" x1="200.193" y1="69" x2="200.193" y2="589" gradientUnits="userSpaceOnUse">
<stop stop-color="#A22CEA"/>
<stop offset="1" stop-color="#7000FF"/>
</linearGradient>
</defs>
</svg>
