<svg width="60" height="60" viewBox="0 0 60 60" fill="none" xmlns="http://www.w3.org/2000/svg">
<path d="M1.2929 43.2929C0.902379 43.6834 0.902379 44.3166 1.2929 44.7071L7.65686 51.0711C8.04739 51.4616 8.68055 51.4616 9.07108 51.0711C9.4616 50.6805 9.4616 50.0474 9.07108 49.6568L3.41422 44L9.07108 38.3431C9.4616 37.9526 9.4616 37.3194 9.07108 36.9289C8.68055 36.5384 8.04739 36.5384 7.65686 36.9289L1.2929 43.2929ZM15 43H2.00001V45H15V43ZM50 8.00001C50 27.33 34.33 43 15 43V45C35.4345 45 52 28.4345 52 8.00001L50 8.00001Z" fill="#216CFF"/>
</svg>
