<svg width="48" height="48" viewBox="0 0 48 48" fill="none" xmlns="http://www.w3.org/2000/svg">
<path fill-rule="evenodd" clip-rule="evenodd" d="M22.3575 0.000272879C30.2086 0.0346196 37.422 3.80748 42.28 9.61414C47.0999 15.3752 49.0848 22.7934 47.4209 29.9578C45.7377 37.2052 40.9257 43.7945 33.6698 46.6874C26.7587 49.4427 18.8966 47.5492 12.4763 43.8898C6.81245 40.6616 4.18502 34.863 2.39515 28.8617C0.439206 22.3034 -1.74669 15.1471 2.20151 9.43881C6.50958 3.21024 14.4629 -0.0342649 22.3575 0.000272879Z" fill="#216CFF"/>
<path fill-rule="evenodd" clip-rule="evenodd" d="M22.3575 0.000272879C30.2086 0.0346196 37.422 3.80748 42.28 9.61414C47.0999 15.3752 49.0848 22.7934 47.4209 29.9578C45.7377 37.2052 40.9257 43.7945 33.6698 46.6874C26.7587 49.4427 18.8966 47.5492 12.4763 43.8898C6.81245 40.6616 4.18502 34.863 2.39515 28.8617C0.439206 22.3034 -1.74669 15.1471 2.20151 9.43881C6.50958 3.21024 14.4629 -0.0342649 22.3575 0.000272879Z" fill="url(#paint0_linear)"/>
<defs>
<linearGradient id="paint0_linear" x1="11.4639" y1="0" x2="11.4639" y2="48" gradientUnits="userSpaceOnUse">
<stop stop-color="#A22CEA"/>
<stop offset="1" stop-color="#7000FF"/>
</linearGradient>
</defs>
</svg>
