<svg width="48" height="48" viewBox="0 0 48 48" fill="none" xmlns="http://www.w3.org/2000/svg">
<path fill-rule="evenodd" clip-rule="evenodd" d="M22.363 0.0673249C29.4542 -0.11787 37.1253 -0.318429 42.014 5.32542C47.3243 11.4561 49.2231 20.5944 47.2206 28.7648C45.2973 36.612 39.0282 41.8161 32.263 45.1095C25.8086 48.2516 18.4555 49.312 12.1421 45.8414C5.93277 42.428 2.51586 35.3305 0.956777 27.8998C-0.607116 20.4462 -0.644079 12.1656 3.85025 6.32211C8.23325 0.623337 15.5722 0.244676 22.363 0.0673249Z" fill="#216CFF"/>
<path fill-rule="evenodd" clip-rule="evenodd" d="M22.363 0.0673249C29.4542 -0.11787 37.1253 -0.318429 42.014 5.32542C47.3243 11.4561 49.2231 20.5944 47.2206 28.7648C45.2973 36.612 39.0282 41.8161 32.263 45.1095C25.8086 48.2516 18.4555 49.312 12.1421 45.8414C5.93277 42.428 2.51586 35.3305 0.956777 27.8998C-0.607116 20.4462 -0.644079 12.1656 3.85025 6.32211C8.23325 0.623337 15.5722 0.244676 22.363 0.0673249Z" fill="url(#paint0_linear)"/>
<defs>
<linearGradient id="paint0_linear" x1="11.4639" y1="0" x2="11.4639" y2="48" gradientUnits="userSpaceOnUse">
<stop stop-color="#A22CEA"/>
<stop offset="1" stop-color="#7000FF"/>
</linearGradient>
</defs>
</svg>
