<svg width="48" height="48" viewBox="0 0 48 48" fill="none" xmlns="http://www.w3.org/2000/svg">
<path fill-rule="evenodd" clip-rule="evenodd" d="M22.6765 0.0531506C29.3115 -0.358785 35.9885 1.59733 40.5752 6.8459C45.706 12.7172 49.1114 20.69 47.6657 28.6486C46.1779 36.8389 40.441 43.4773 33.3511 46.6151C26.7522 49.5355 19.5308 47.4582 13.1991 43.9022C7.11974 40.488 1.49712 35.3476 0.231548 28.0148C-0.990071 20.9367 2.8127 14.338 7.16147 8.92041C11.2088 3.87833 16.5444 0.433866 22.6765 0.0531506Z" fill="#216CFF"/>
<path fill-rule="evenodd" clip-rule="evenodd" d="M22.6765 0.0531506C29.3115 -0.358785 35.9885 1.59733 40.5752 6.8459C45.706 12.7172 49.1114 20.69 47.6657 28.6486C46.1779 36.8389 40.441 43.4773 33.3511 46.6151C26.7522 49.5355 19.5308 47.4582 13.1991 43.9022C7.11974 40.488 1.49712 35.3476 0.231548 28.0148C-0.990071 20.9367 2.8127 14.338 7.16147 8.92041C11.2088 3.87833 16.5444 0.433866 22.6765 0.0531506Z" fill="url(#paint0_linear)"/>
<defs>
<linearGradient id="paint0_linear" x1="11.4639" y1="0" x2="11.4639" y2="48" gradientUnits="userSpaceOnUse">
<stop stop-color="#A22CEA"/>
<stop offset="1" stop-color="#7000FF"/>
</linearGradient>
</defs>
</svg>
