<svg width="48" height="48" viewBox="0 0 48 48" fill="none" xmlns="http://www.w3.org/2000/svg">
<path fill-rule="evenodd" clip-rule="evenodd" d="M24.0831 0.0175686C31.74 0.309107 37.954 5.16791 42.5108 10.852C46.828 16.2372 48.9292 22.7765 47.6086 29.3627C46.2118 36.3284 42.3294 43.0362 35.4327 46.1511C28.4906 49.2865 20.2516 48.1674 13.4417 44.7942C7.0063 41.6065 3.05271 35.7469 1.24668 29.2176C-0.630196 22.4322 -0.797588 15.0512 3.64382 9.37217C8.32555 3.38582 16.0882 -0.286835 24.0831 0.0175686Z" fill="#216CFF"/>
<path fill-rule="evenodd" clip-rule="evenodd" d="M24.0831 0.0175686C31.74 0.309107 37.954 5.16791 42.5108 10.852C46.828 16.2372 48.9292 22.7765 47.6086 29.3627C46.2118 36.3284 42.3294 43.0362 35.4327 46.1511C28.4906 49.2865 20.2516 48.1674 13.4417 44.7942C7.0063 41.6065 3.05271 35.7469 1.24668 29.2176C-0.630196 22.4322 -0.797588 15.0512 3.64382 9.37217C8.32555 3.38582 16.0882 -0.286835 24.0831 0.0175686Z" fill="url(#paint0_linear)"/>
<defs>
<linearGradient id="paint0_linear" x1="11.4639" y1="0" x2="11.4639" y2="48" gradientUnits="userSpaceOnUse">
<stop stop-color="#A22CEA"/>
<stop offset="1" stop-color="#7000FF"/>
</linearGradient>
</defs>
</svg>
