<svg width="48" height="48" viewBox="0 0 48 48" fill="none" xmlns="http://www.w3.org/2000/svg">
<path fill-rule="evenodd" clip-rule="evenodd" d="M22.4219 0.0241259C29.0619 0.232851 35.3332 2.68795 39.8655 7.80665C44.93 13.5264 49.2418 20.8954 47.6726 28.542C46.0887 36.2599 39.1767 40.9388 32.3828 44.2676C25.735 47.5249 18.1115 49.7067 11.562 46.2353C5.11272 42.8171 2.47649 35.0687 0.982971 27.6251C-0.472482 20.3712 -0.833341 12.4045 3.6229 6.66739C8.02763 0.99665 15.4715 -0.194356 22.4219 0.0241259Z" fill="#216CFF"/>
<path fill-rule="evenodd" clip-rule="evenodd" d="M22.4219 0.0241259C29.0619 0.232851 35.3332 2.68795 39.8655 7.80665C44.93 13.5264 49.2418 20.8954 47.6726 28.542C46.0887 36.2599 39.1767 40.9388 32.3828 44.2676C25.735 47.5249 18.1115 49.7067 11.562 46.2353C5.11272 42.8171 2.47649 35.0687 0.982971 27.6251C-0.472482 20.3712 -0.833341 12.4045 3.6229 6.66739C8.02763 0.99665 15.4715 -0.194356 22.4219 0.0241259Z" fill="url(#paint0_linear)"/>
<defs>
<linearGradient id="paint0_linear" x1="11.4639" y1="0" x2="11.4639" y2="48" gradientUnits="userSpaceOnUse">
<stop stop-color="#A22CEA"/>
<stop offset="1" stop-color="#7000FF"/>
</linearGradient>
</defs>
</svg>
