<svg width="48" height="48" viewBox="0 0 48 48" fill="none" xmlns="http://www.w3.org/2000/svg">
<path fill-rule="evenodd" clip-rule="evenodd" d="M22.6122 0.365337C29.2116 0.707661 35.9078 1.64478 40.5013 6.89597C45.6764 12.812 49.1371 20.9271 47.6549 28.9934C46.1377 37.2494 40.2799 43.9012 33.1538 46.8798C26.6709 49.5895 19.6912 47.0004 13.6746 43.1964C8.2663 39.777 4.69892 34.233 2.78269 27.6776C0.563002 20.0841 -2.03086 11.147 2.48713 4.9241C6.99757 -1.28838 15.4157 -0.00795655 22.6122 0.365337Z" fill="#216CFF"/>
<path fill-rule="evenodd" clip-rule="evenodd" d="M22.6122 0.365337C29.2116 0.707661 35.9078 1.64478 40.5013 6.89597C45.6764 12.812 49.1371 20.9271 47.6549 28.9934C46.1377 37.2494 40.2799 43.9012 33.1538 46.8798C26.6709 49.5895 19.6912 47.0004 13.6746 43.1964C8.2663 39.777 4.69892 34.233 2.78269 27.6776C0.563002 20.0841 -2.03086 11.147 2.48713 4.9241C6.99757 -1.28838 15.4157 -0.00795655 22.6122 0.365337Z" fill="url(#paint0_linear)"/>
<defs>
<linearGradient id="paint0_linear" x1="11.4639" y1="0" x2="11.4639" y2="48" gradientUnits="userSpaceOnUse">
<stop stop-color="#A22CEA"/>
<stop offset="1" stop-color="#7000FF"/>
</linearGradient>
</defs>
</svg>
