<svg width="168" height="156" viewBox="0 0 168 156" fill="none" xmlns="http://www.w3.org/2000/svg">
<path fill-rule="evenodd" clip-rule="evenodd" d="M77.5367 5.86249C92.5462 10.614 99.4049 27.0718 112.058 36.4652C124.536 45.7293 141.903 47.4979 150.807 60.2577C161.448 75.5087 173.479 96.0568 165.302 112.769C156.93 129.879 131.498 126.858 114.281 134.906C101.493 140.885 91.4296 151.34 77.5367 153.801C61.4806 156.644 44.124 157.983 29.9853 149.834C15.1463 141.282 3.24632 126.245 0.352717 109.319C-2.40361 93.196 11.791 79.8288 15.2857 63.8508C19.3886 45.0917 8.46242 21.1761 22.4885 8.1105C36.2862 -4.74236 59.5834 0.179066 77.5367 5.86249Z" fill="#07BEFD"/>
</svg>
