<svg width="413" height="417" viewBox="0 0 413 417" fill="none" xmlns="http://www.w3.org/2000/svg">
<path fill-rule="evenodd" clip-rule="evenodd" d="M203.085 0.803483C156.969 -3.64775 103.356 10.1925 75.7549 47.4026C48.8281 83.7029 83.9857 136.437 70.4813 179.569C57.2439 221.848 -4.40546 244.499 0.250427 288.557C4.79633 331.573 54.7298 353.404 91.2944 376.516C125.612 398.208 162.522 415.058 203.085 416.766C244.977 418.53 287.752 410.511 321.932 386.227C356.331 361.788 375.906 323.135 390.568 283.569C405.799 242.468 421.976 197.598 407.114 156.362C392.406 115.555 348.222 96.6722 313.727 70.3722C278.214 43.2956 247.537 5.09408 203.085 0.803483Z" fill="#F8F8F8"/>
</svg>
