<svg width="734" height="600" viewBox="0 0 734 600" fill="none" xmlns="http://www.w3.org/2000/svg">
<mask id="mask0" mask-type="alpha" maskUnits="userSpaceOnUse" x="0" y="0" width="734" height="600">
<rect width="734" height="600" fill="#F8F8F8"/>
</mask>
<g mask="url(#mask0)">
<path fill-rule="evenodd" clip-rule="evenodd" d="M57.4402 629.028C36.715 562.002 -1.57947 484.185 35.8492 424.846C73.7814 364.709 169.405 388.427 231.287 353.414C286.886 321.957 311.296 242.525 374.499 233.239C440.094 223.602 502.522 264.653 554.394 305.944C606.611 347.51 646.498 402.164 666.64 465.793C687.481 531.629 707.654 610.676 668.967 667.877C630.625 724.569 545.522 714.226 481.774 739.131C434.849 757.464 394.569 784.931 345.089 794.41C280.415 806.799 209.619 835.024 152.532 802.202C94.0087 768.554 77.3826 693.522 57.4402 629.028Z" fill="#07BEFD"/>
<path fill-rule="evenodd" clip-rule="evenodd" d="M634.423 497.658C671.79 557.035 728.92 622.29 708.124 689.294C687.049 757.199 588.546 759.039 537.834 808.875C492.272 853.651 489.251 936.694 430.606 962.021C369.739 988.307 298.814 964.813 238.023 938.353C176.827 911.718 124.154 869.25 88.2296 813.002C51.0594 754.804 11.115 683.672 33.6789 618.407C56.0415 553.723 140.921 541.687 196.051 501.132C236.633 471.279 268.431 434.322 313.772 412.36C373.035 383.654 434.114 338.068 497.75 354.996C562.988 372.35 598.468 440.523 634.423 497.658Z" fill="#C4C4C4"/>
<path fill-rule="evenodd" clip-rule="evenodd" d="M634.423 497.658C671.79 557.035 728.92 622.29 708.124 689.294C687.049 757.199 588.546 759.039 537.834 808.875C492.272 853.651 489.251 936.694 430.606 962.021C369.739 988.307 298.814 964.813 238.023 938.353C176.827 911.718 124.154 869.25 88.2296 813.002C51.0594 754.804 11.115 683.672 33.6789 618.407C56.0415 553.723 140.921 541.687 196.051 501.132C236.633 471.279 268.431 434.322 313.772 412.36C373.035 383.654 434.114 338.068 497.75 354.996C562.988 372.35 598.468 440.523 634.423 497.658Z" fill="url(#paint0_linear)"/>
</g>
<defs>
<linearGradient id="paint0_linear" x1="585.124" y1="402.762" x2="33.9481" y2="720.984" gradientUnits="userSpaceOnUse">
<stop stop-color="#A22CEA"/>
<stop offset="1" stop-color="#7000FF"/>
</linearGradient>
</defs>
</svg>
