<svg width="729" height="425" viewBox="0 0 729 425" fill="none" xmlns="http://www.w3.org/2000/svg">
<path fill-rule="evenodd" clip-rule="evenodd" d="M57.4402 454.028C36.715 387.002 -1.57947 309.185 35.8492 249.846C73.7814 189.709 169.405 213.427 231.287 178.414C286.886 146.957 311.296 67.5246 374.499 58.2391C440.094 48.602 502.522 89.6527 554.394 130.944C606.611 172.51 646.498 227.164 666.64 290.793C687.481 356.629 707.654 435.676 668.967 492.877C630.625 549.569 545.522 539.226 481.774 564.131C434.849 582.464 394.569 609.931 345.089 619.41C280.415 631.799 209.619 660.024 152.532 627.202C94.0087 593.554 77.3826 518.522 57.4402 454.028Z" fill="#07BEFD"/>
</svg>
