<svg width="734" height="308" viewBox="0 0 734 308" fill="none" xmlns="http://www.w3.org/2000/svg">
<path fill-rule="evenodd" clip-rule="evenodd" d="M634.423 205.658C671.79 265.035 728.92 330.29 708.124 397.294C687.049 465.199 588.546 467.039 537.834 516.875C492.272 561.651 489.251 644.694 430.606 670.021C369.739 696.307 298.814 672.813 238.023 646.353C176.827 619.718 124.154 577.25 88.2296 521.002C51.0594 462.804 11.115 391.672 33.6789 326.407C56.0415 261.723 140.921 249.687 196.051 209.132C236.633 179.279 268.431 142.322 313.772 120.36C373.035 91.6543 434.114 46.0676 497.75 62.9958C562.988 80.35 598.468 148.523 634.423 205.658Z" fill="#C4C4C4"/>
<path fill-rule="evenodd" clip-rule="evenodd" d="M634.423 205.658C671.79 265.035 728.92 330.29 708.124 397.294C687.049 465.199 588.546 467.039 537.834 516.875C492.272 561.651 489.251 644.694 430.606 670.021C369.739 696.307 298.814 672.813 238.023 646.353C176.827 619.718 124.154 577.25 88.2296 521.002C51.0594 462.804 11.115 391.672 33.6789 326.407C56.0415 261.723 140.921 249.687 196.051 209.132C236.633 179.279 268.431 142.322 313.772 120.36C373.035 91.6543 434.114 46.0676 497.75 62.9958C562.988 80.35 598.468 148.523 634.423 205.658Z" fill="url(#paint0_linear)"/>
<defs>
<linearGradient id="paint0_linear" x1="585.124" y1="110.762" x2="33.9481" y2="428.984" gradientUnits="userSpaceOnUse">
<stop stop-color="#A22CEA"/>
<stop offset="1" stop-color="#7000FF"/>
</linearGradient>
</defs>
</svg>
