<svg width="20" height="16" viewBox="0 0 20 16" fill="none" xmlns="http://www.w3.org/2000/svg">
<path d="M8.38298 0L9.10638 1.24496C6.49645 2.62824 5.19149 4.27282 5.19149 6.17867C5.19149 7.07013 5.5461 7.86936 6.25532 8.57637C6.96454 9.28338 7.94326 9.80596 9.19149 10.1441L4.55319 16C1.51773 14.8012 0 12.4649 0 8.99135C0 6.90106 0.780142 5.01057 2.34043 3.31989C3.92908 1.6292 5.94326 0.522575 8.38298 0ZM19.1915 0L19.9149 1.24496C17.305 2.62824 16 4.27282 16 6.17867C16 7.07013 16.3546 7.86936 17.0638 8.57637C17.7731 9.28338 18.7518 9.80596 20 10.1441L15.3617 16C12.3262 14.8012 10.8085 12.4649 10.8085 8.99135C10.8085 6.90106 11.5887 5.01057 13.1489 3.31989C14.7376 1.6292 16.7518 0.522575 19.1915 0Z" fill="#92ADE2"/>
</svg>
