<svg width="142" height="142" viewBox="0 0 142 142" fill="none" xmlns="http://www.w3.org/2000/svg">
<g filter="url(#filter0_d)">
<path fill-rule="evenodd" clip-rule="evenodd" d="M69.21 36.0041C75.031 35.8648 79.9861 39.2751 84.5307 42.9263C89.8655 47.2123 96.3802 51.4622 96.9541 58.2939C97.5512 65.403 92.2191 71.289 87.3497 76.4892C82.2672 81.9171 76.6129 87.3642 69.21 87.923C61.3591 88.5156 52.9495 85.6859 48.118 79.4505C43.6154 73.6394 44.9407 65.5352 46.2522 58.2939C47.2943 52.5399 50.4141 47.71 54.6034 43.6426C58.7049 39.6605 63.5035 36.1407 69.21 36.0041Z" fill="white"/>
</g>
<path d="M77.8007 60.444L68.1827 53.3908C66.8617 52.422 65 53.3654 65 55.0036V69.11C65 70.7482 66.8617 71.6915 68.1827 70.7228L77.8007 63.6696C78.8904 62.8705 78.8904 61.2431 77.8007 60.444Z" fill="url(#paint0_linear)"/>
<defs>
<filter id="filter0_d" x="0" y="0" width="142" height="142" filterUnits="userSpaceOnUse" color-interpolation-filters="sRGB">
<feFlood flood-opacity="0" result="BackgroundImageFix"/>
<feColorMatrix in="SourceAlpha" type="matrix" values="0 0 0 0 0 0 0 0 0 0 0 0 0 0 0 0 0 0 127 0"/>
<feOffset dy="9"/>
<feGaussianBlur stdDeviation="22.5"/>
<feColorMatrix type="matrix" values="0 0 0 0 0 0 0 0 0 0 0 0 0 0 0 0 0 0 0.1 0"/>
<feBlend mode="normal" in2="BackgroundImageFix" result="effect1_dropShadow"/>
<feBlend mode="normal" in="SourceGraphic" in2="effect1_dropShadow" result="shape"/>
</filter>
<linearGradient id="paint0_linear" x1="64.057" y1="65.349" x2="78.9325" y2="60.2051" gradientUnits="userSpaceOnUse">
<stop stop-color="#A22CEA"/>
<stop offset="1" stop-color="#7000FF"/>
</linearGradient>
</defs>
</svg>
