<svg width="20" height="16" viewBox="0 0 20 16" fill="none" xmlns="http://www.w3.org/2000/svg">
<path d="M0.80851 16L0.0851078 14.755C2.69504 13.3718 4 11.7272 4 9.82133C4 8.92988 3.64539 8.13064 2.93617 7.42363C2.22695 6.71662 1.24823 6.19404 0 5.85591L4.6383 0C7.67376 1.19885 9.19149 3.53506 9.19149 7.00865C9.19149 9.09894 8.39716 10.9894 6.80851 12.6801C5.24823 14.3708 3.24823 15.4774 0.80851 16ZM11.617 16L10.8936 14.755C13.5035 13.3718 14.8085 11.7272 14.8085 9.82133C14.8085 8.92988 14.4539 8.13064 13.7447 7.42363C13.0355 6.71662 12.0567 6.19404 10.8085 5.85591L15.4468 0C18.4823 1.19885 20 3.53506 20 7.00865C20 9.09894 19.2057 10.9894 17.617 12.6801C16.0567 14.3708 14.0567 15.4774 11.617 16Z" fill="#92ADE2"/>
</svg>
