<svg width="59" height="28" viewBox="0 0 59 28" fill="none" xmlns="http://www.w3.org/2000/svg">
<path fill-rule="evenodd" clip-rule="evenodd" d="M40 0V2H52V0H54V2H55C57.2091 2 59 3.79086 59 6V24C59 26.2091 57.2091 28 55 28H37C35.1361 28 33.5701 26.7252 33.126 25H33C31.3431 25 30 23.6569 30 22V8C30 6.34314 31.3431 5 33 5H33.126C33.5701 3.27478 35.1361 2 37 2H38V0H40ZM40 6H38V4H37C35.8954 4 35 4.89542 35 6V24C35 25.1046 35.8954 26 37 26H55C56.1046 26 57 25.1046 57 24V6C57 4.89542 56.1046 4 55 4H54V6H52V4H40V6ZM47 12V10H45V12H47ZM52 12V10H50V12H52ZM42 15V17H40V15H42ZM47 15V17H45V15H47ZM52 15V17H50V15H52ZM42 22V20H40V22H42ZM47 22V20H45V22H47ZM4 13H26V15H4V13ZM26 6H13V8H26V6ZM13 20H26V22H13V20ZM2 13H0V15H2V13ZM9 6H11V8H9V6ZM11 20H9V22H11V20Z" fill="#7101FF"/>
</svg>
