<svg width="60" height="29" viewBox="0 0 60 29" fill="none" xmlns="http://www.w3.org/2000/svg">
<path fill-rule="evenodd" clip-rule="evenodd" d="M59.3553 14.1421L45.2132 0L44.5061 0.707107L31.071 14.1421L29.6775 15.5356L28.2843 14.1424L14.8492 0.707351L14.1421 0.000244141L0 14.1424L14.1421 28.2845L26.8701 15.5566L28.2633 16.9499L19 26.2132L20.4142 27.6274L29.6775 18.3641L38.9411 27.6277L40.3553 26.2135L31.0917 16.9499L32.4853 15.5563L45.2132 28.2843L59.3553 14.1421ZM39.5563 8.48528L45.2132 2.82843L50.87 8.48528L45.2132 14.1421L39.5563 8.48528ZM45.2132 14.1421L50.87 19.799L45.2132 25.4558L39.5563 19.799L45.2132 14.1421ZM19.799 8.48553L14.1421 2.82867L8.48528 8.48553L14.1421 14.1424L8.48528 19.7992L14.1421 25.4561L19.799 19.7992L14.1421 14.1424L19.799 8.48553Z" fill="#A22CEA"/>
</svg>
