<svg width="837" height="644" viewBox="0 0 837 644" fill="none" xmlns="http://www.w3.org/2000/svg">
<path fill-rule="evenodd" clip-rule="evenodd" d="M443.047 0.775309C514.704 -7.06702 575.284 46.3082 637.305 83.0432C706.59 124.081 795.07 151.497 824.235 226.553C853.701 302.385 828.731 393.133 784.271 461.266C744.698 521.911 665.15 534.043 601.296 568.201C548.455 596.467 502.892 640.663 443.047 643.8C381.464 647.028 328.652 610.417 272.266 585.449C197.685 552.424 106.4 542.244 60.8712 474.571C10.5559 399.784 -25.0927 290.425 22.1218 213.643C70.6407 134.739 194.746 164.234 277.407 122.431C340.074 90.7402 373.239 8.41531 443.047 0.775309Z" fill="#F8F8F8"/>
</svg>
