<svg width="172" height="172" viewBox="0 0 172 172" fill="none" xmlns="http://www.w3.org/2000/svg">
<path fill-rule="evenodd" clip-rule="evenodd" d="M0.00281514 94.0445C0.253182 67.6394 19.1203 47.7256 37.9471 30.8913C57.3706 13.5233 79.443 -4.08689 104.238 0.840495C129.978 5.95561 148.034 29.6183 159.492 55.0453C171.025 80.6368 177.897 111.079 165.137 135.981C152.938 159.789 125.441 165.568 100.593 169.992C78.2092 173.977 55.3303 172.882 36.7339 158.842C16.5187 143.579 -0.24985 120.692 0.00281514 94.0445Z" fill="#C4C4C4"/>
<path fill-rule="evenodd" clip-rule="evenodd" d="M0.00281514 94.0445C0.253182 67.6394 19.1203 47.7256 37.9471 30.8913C57.3706 13.5233 79.443 -4.08689 104.238 0.840495C129.978 5.95561 148.034 29.6183 159.492 55.0453C171.025 80.6368 177.897 111.079 165.137 135.981C152.938 159.789 125.441 165.568 100.593 169.992C78.2092 173.977 55.3303 172.882 36.7339 158.842C16.5187 143.579 -0.24985 120.692 0.00281514 94.0445Z" fill="url(#paint0_linear)"/>
<defs>
<linearGradient id="paint0_linear" x1="-1.79562e-06" y1="130.921" x2="172" y2="130.921" gradientUnits="userSpaceOnUse">
<stop stop-color="#A22CEA"/>
<stop offset="1" stop-color="#7000FF"/>
</linearGradient>
</defs>
</svg>
