<svg width="32" height="41" viewBox="0 0 32 41" fill="none" xmlns="http://www.w3.org/2000/svg">
<path fill-rule="evenodd" clip-rule="evenodd" d="M23.937 25.1264C23.937 28.0487 26.3061 30.4177 29.2284 30.4177C30.2446 30.4177 31.1939 30.1312 32 29.6346L32 41.0004L5.03943 41.0004C2.25622 41.0004 7.84561e-05 38.7442 7.85777e-05 35.961L7.97562e-05 9.00047L11.3659 9.00047C10.8694 8.1944 10.5827 7.24508 10.5827 6.22882C10.5827 3.30651 12.9518 0.937499 15.8741 0.937499C18.7963 0.937499 21.1654 3.30651 21.1654 6.22883C21.1654 7.24508 20.8787 8.1944 20.3822 9.00047L32 9.00047L32 20.6182C31.1939 20.1216 30.2446 19.8351 29.2284 19.8351C26.3061 19.8351 23.937 22.2041 23.937 25.1264Z" fill="#5599DA"/>
</svg>
