<svg width="41" height="32" viewBox="0 0 41 32" fill="none" xmlns="http://www.w3.org/2000/svg">
<path fill-rule="evenodd" clip-rule="evenodd" d="M25.1264 8.06395C28.0487 8.06395 30.4177 5.69486 30.4177 2.77263C30.4177 1.75639 30.1312 0.807079 29.6346 0.000979071L41.0004 0.000980065L41.0004 26.9615C41.0004 29.7448 38.7442 32.0009 35.961 32.0009L9.00047 32.0009L9.00047 20.635C8.1944 21.1316 7.24508 21.4182 6.22882 21.4182C3.30651 21.4182 0.937498 19.0492 0.937499 16.1269C0.937499 13.2047 3.30651 10.8356 6.22882 10.8356C7.24508 10.8356 8.1944 11.1223 9.00047 11.6188L9.00047 0.000977267L20.6182 0.000978283C20.1216 0.807079 19.8351 1.75639 19.8351 2.77262C19.8351 5.69486 22.2041 8.06395 25.1264 8.06395Z" fill="#AAE7F9"/>
</svg>
