<svg width="73" height="98" viewBox="0 0 73 98" fill="none" xmlns="http://www.w3.org/2000/svg">
<path d="M38 87V88H8V87C8 85.8954 7.10457 85 6 85H5V40H6C7.10457 40 8 39.1046 8 38V37H38V38C38 39.1046 38.8954 40 40 40H41V85H40C38.8954 85 38 85.8954 38 87Z" fill="url(#paint0_linear)"/>
<path fill-rule="evenodd" clip-rule="evenodd" d="M34 82.7453C35.8135 81.4804 37 79.3787 37 77C37 73.134 33.866 70 30 70C26.134 70 23 73.134 23 77C23 79.3787 24.1865 81.4804 26 82.7453V96L30 94L34 96V82.7453Z" fill="#C4C4C4"/>
<path fill-rule="evenodd" clip-rule="evenodd" d="M34 82.7453C35.8135 81.4804 37 79.3787 37 77C37 73.134 33.866 70 30 70C26.134 70 23 73.134 23 77C23 79.3787 24.1865 81.4804 26 82.7453V96L30 94L34 96V82.7453Z" fill="url(#paint1_linear)"/>
<path d="M26 83V96L30 94L34 96V83M26 88H8V87C8 85.8954 7.10457 85 6 85H5V40H6C7.10457 40 8 39.1046 8 38V37H38V38C38 39.1046 38.8954 40 40 40H41V85H40C38.8954 85 38 85.8954 38 87V88H34M26 92H4C2.34315 92 1 90.6569 1 89V36C1 34.3431 2.34315 33 4 33H42C43.6569 33 45 34.3431 45 36V89C45 90.6569 43.6569 92 42 92H34M37 77V77C37 80.866 33.866 84 30 84V84C26.134 84 23 80.866 23 77V77C23 73.134 26.134 70 30 70V70C33.866 70 37 73.134 37 77Z" stroke="black" stroke-width="2"/>
<path fill-rule="evenodd" clip-rule="evenodd" d="M35 42H11V44H35V42ZM11 61V63H35V61H11ZM35 57V59H11V57H35ZM11 53V55H35V53H11ZM11 46H23V48H11V46ZM23 65H11V67H23V65Z" fill="white"/>
<path d="M63.9235 6.73899L72.5 6.73899L72.5 14.4284C71.9828 14.2309 71.4211 14.1226 70.8346 14.1226C68.28 14.1226 66.2008 16.1751 66.2008 18.717C66.2008 21.2589 68.28 23.3113 70.8346 23.3113C71.4211 23.3113 71.9828 23.2031 72.5 23.0055L72.5 30.5L51.937 30.5C50.0342 30.5 48.5 28.9735 48.5 27.1006L48.5 6.73899L56.8796 6.73899L57.7794 6.73899L57.3042 5.97492C56.964 5.42789 56.7677 4.78438 56.7677 4.09434C56.7677 2.11377 58.3902 0.499999 60.4016 0.499999C62.413 0.5 64.0354 2.11377 64.0354 4.09434C64.0354 4.78438 63.8392 5.42789 63.499 5.97492L63.0237 6.73899L63.9235 6.73899Z" stroke="#FFD900"/>
<defs>
<linearGradient id="paint0_linear" x1="11.744" y1="30.22" x2="11.744" y2="88.5741" gradientUnits="userSpaceOnUse">
<stop stop-color="#A22CEA"/>
<stop offset="1" stop-color="#7000FF"/>
</linearGradient>
<linearGradient id="paint1_linear" x1="26.0497" y1="61.511" x2="26.0497" y2="95.999" gradientUnits="userSpaceOnUse">
<stop stop-color="#2CA5EA"/>
<stop offset="1" stop-color="#00C2FF"/>
</linearGradient>
</defs>
</svg>
