<svg width="80" height="91" viewBox="0 0 80 91" fill="none" xmlns="http://www.w3.org/2000/svg">
<path fill-rule="evenodd" clip-rule="evenodd" d="M28.9917 38.1986C34.8597 37.0648 40.8081 33.4804 46.3186 35.7238C52.0874 38.0724 55.747 43.9536 57.3864 49.7586C58.9823 55.4095 57.1991 61.2594 55.0808 66.7499C53.0412 72.0363 50.973 78.3368 45.5369 80.471C40.1802 82.574 34.7206 77.7805 28.9917 76.9924C24.4454 76.3669 19.5779 78.4962 15.5674 76.3481C11.3591 74.094 8.41496 69.878 7.3058 65.3767C6.2421 61.0599 8.17431 56.7842 9.71629 52.6025C11.215 48.5381 12.5418 44.2135 16.0862 41.5649C19.6919 38.8704 24.5119 39.0641 28.9917 38.1986Z" fill="url(#paint0_linear)"/>
<path d="M64.0765 24.261L55.5 24.261L55.5 16.5716C56.0172 16.7691 56.5789 16.8774 57.1654 16.8774C59.72 16.8774 61.7992 14.8249 61.7992 12.283C61.7992 9.74112 59.72 7.68868 57.1654 7.68868C56.5789 7.68868 56.0172 7.79691 55.5 7.99447L55.5 0.499998L76.063 0.499999C77.9658 0.499999 79.5 2.02646 79.5 3.89937L79.5 24.261L71.1204 24.261L70.2206 24.261L70.6958 25.0251C71.036 25.5721 71.2323 26.2156 71.2323 26.9057C71.2323 28.8862 69.6098 30.5 67.5984 30.5C65.587 30.5 63.9646 28.8862 63.9646 26.9057C63.9646 26.2156 64.1608 25.5721 64.501 25.0251L64.9763 24.261L64.0765 24.261Z" stroke="#AAE7F9"/>
<path d="M37 61H28C26.8954 61 26 61.8954 26 63V67H39V63C39 61.8954 38.1046 61 37 61Z" fill="url(#paint1_linear)"/>
<path d="M32.5 50C34.433 50 36 51.567 36 53.5C36 55.433 34.433 57 32.5 57C30.567 57 29 55.433 29 53.5C29 51.567 30.567 50 32.5 50Z" fill="url(#paint2_linear)"/>
<path d="M37 61H28C26.8954 61 26 61.8954 26 63V67H39V63C39 61.8954 38.1046 61 37 61Z" stroke="black" stroke-width="2"/>
<path d="M11.6667 77.1864C12.8449 77.1864 13.8 78.1438 13.8 79.322C13.8 80.5002 12.8449 81.4576 11.6667 81.4576C10.4885 81.4576 9.53333 80.5002 9.53333 79.322C9.53333 78.1438 10.4885 77.1864 11.6667 77.1864Z" stroke="black" stroke-width="2"/>
<path d="M54.3333 77.1864C55.5115 77.1864 56.4667 78.1438 56.4667 79.322C56.4667 80.5002 55.5115 81.4576 54.3333 81.4576C53.1551 81.4576 52.2 80.5002 52.2 79.322C52.2 78.1438 53.1551 77.1864 54.3333 77.1864Z" stroke="black" stroke-width="2"/>
<path d="M11.6667 34.4746C12.8449 34.4746 13.8 35.432 13.8 36.6102C13.8 37.7884 12.8449 38.7458 11.6667 38.7458C10.4885 38.7458 9.53333 37.7884 9.53333 36.6102C9.53333 35.432 10.4885 34.4746 11.6667 34.4746Z" stroke="black" stroke-width="2"/>
<path d="M54.3333 34.4746C55.5115 34.4746 56.4667 35.432 56.4667 36.6102C56.4667 37.7884 55.5115 38.7458 54.3333 38.7458C53.1551 38.7458 52.2 37.7884 52.2 36.6102C52.2 35.432 53.1551 34.4746 54.3333 34.4746Z" stroke="black" stroke-width="2"/>
<path d="M65 57.9661C65 59.1443 64.0449 60.1017 62.8667 60.1017C61.6885 60.1017 60.7333 59.1443 60.7333 57.9661C60.7333 56.7879 61.6885 55.8305 62.8667 55.8305C64.0449 55.8305 65 56.7879 65 57.9661Z" stroke="black" stroke-width="2"/>
<path d="M3.13333 55.8305C4.31154 55.8305 5.26667 56.7879 5.26667 57.9661C5.26667 59.1443 4.31154 60.1017 3.13333 60.1017C1.95513 60.1017 1 59.1443 1 57.9661C1 56.7879 1.95513 55.8305 3.13333 55.8305Z" stroke="black" stroke-width="2"/>
<path d="M33 85.7288C34.1782 85.7288 35.1333 86.6862 35.1333 87.8644C35.1333 89.0426 34.1782 90 33 90C31.8218 90 30.8667 89.0426 30.8667 87.8644C30.8667 86.6862 31.8218 85.7288 33 85.7288Z" stroke="black" stroke-width="2"/>
<path d="M35.1333 29.1356C35.1333 30.3138 34.1782 31.2712 33 31.2712C31.8218 31.2712 30.8667 30.3138 30.8667 29.1356C30.8667 27.9574 31.8218 27 33 27C34.1782 27 35.1333 27.9574 35.1333 29.1356Z" stroke="black" stroke-width="2"/>
<path d="M32.5 50C34.433 50 36 51.567 36 53.5C36 55.433 34.433 57 32.5 57C30.567 57 29 55.433 29 53.5C29 51.567 30.567 50 32.5 50Z" stroke="black" stroke-width="2"/>
<path fill-rule="evenodd" clip-rule="evenodd" d="M49.3431 53.9286L52.7071 57.2926C53.0976 57.6831 53.0976 58.3163 52.7071 58.7068L49.3431 62.0708C48.9526 62.4613 48.3195 62.4613 47.9289 62.0708C47.5384 61.6802 47.5384 61.0471 47.9289 60.6566L49.5858 58.9997H42V56.9997H49.5858L47.9289 55.3428C47.5384 54.9523 47.5384 54.3192 47.9289 53.9286C48.3195 53.5381 48.9526 53.5381 49.3431 53.9286Z" fill="white"/>
<path fill-rule="evenodd" clip-rule="evenodd" d="M36.4356 77.3431L33.0717 80.7071C32.6811 81.0976 32.048 81.0976 31.6574 80.7071L28.2935 77.3431C27.903 76.9526 27.903 76.3195 28.2935 75.9289C28.684 75.5384 29.3172 75.5384 29.7077 75.9289L31.3646 77.5858L31.3646 70L33.3646 70L33.3646 77.5858L35.0214 75.9289C35.4119 75.5384 36.0451 75.5384 36.4356 75.9289C36.8261 76.3195 36.8261 76.9526 36.4356 77.3431Z" fill="white"/>
<path fill-rule="evenodd" clip-rule="evenodd" d="M15.6569 53.9286L12.2929 57.2926C11.9024 57.6831 11.9024 58.3163 12.2929 58.7068L15.6569 62.0708C16.0474 62.4613 16.6805 62.4613 17.0711 62.0708C17.4616 61.6802 17.4616 61.0471 17.0711 60.6566L15.4142 58.9997H23V56.9997H15.4142L17.0711 55.3428C17.4616 54.9523 17.4616 54.3192 17.0711 53.9286C16.6805 53.5381 16.0474 53.5381 15.6569 53.9286Z" fill="white"/>
<path fill-rule="evenodd" clip-rule="evenodd" d="M36.4356 39.6569L33.0717 36.2929C32.6811 35.9024 32.048 35.9024 31.6574 36.2929L28.2935 39.6569C27.903 40.0474 27.903 40.6805 28.2935 41.0711C28.684 41.4616 29.3172 41.4616 29.7077 41.0711L31.3646 39.4142L31.3646 47L33.3646 47L33.3646 39.4142L35.0214 41.0711C35.4119 41.4616 36.0451 41.4616 36.4356 41.0711C36.8261 40.6805 36.8261 40.0474 36.4356 39.6569Z" fill="white"/>
<defs>
<linearGradient id="paint0_linear" x1="17.0568" y1="25.4104" x2="17.0568" y2="81.5524" gradientUnits="userSpaceOnUse">
<stop stop-color="#A22CEA"/>
<stop offset="1" stop-color="#7000FF"/>
</linearGradient>
<linearGradient id="paint1_linear" x1="28.4907" y1="42.4423" x2="28.4907" y2="68.2136" gradientUnits="userSpaceOnUse">
<stop stop-color="#2CA5EA"/>
<stop offset="1" stop-color="#00C2FF"/>
</linearGradient>
<linearGradient id="paint2_linear" x1="28.4907" y1="42.4423" x2="28.4907" y2="68.2136" gradientUnits="userSpaceOnUse">
<stop stop-color="#2CA5EA"/>
<stop offset="1" stop-color="#00C2FF"/>
</linearGradient>
</defs>
</svg>
