<svg width="70" height="90" viewBox="0 0 70 90" fill="none" xmlns="http://www.w3.org/2000/svg">
<path d="M3 85V60C3 59.4477 3.44772 59 4 59H5H15.9289C17.255 59 18.5268 59.5268 19.4645 60.4645L21.5355 62.5355C22.4732 63.4732 23.745 64 25.0711 64H44H45C45.5523 64 46 64.4477 46 65V85C46 86.1046 45.1046 87 44 87H5C3.89543 87 3 86.1046 3 85Z" fill="url(#paint0_linear)"/>
<path d="M19.8787 57.8787L23.1213 61.1213C23.6839 61.6839 24.447 62 25.2426 62H44V42H40V32H10V43H38V44H6V57H17.7574C18.553 57 19.3161 57.3161 19.8787 57.8787Z" fill="url(#paint1_linear)"/>
<path d="M3 57H17.7574C18.553 57 19.3161 57.3161 19.8787 57.8787L23.1213 61.1213C23.6839 61.6839 24.447 62 25.2426 62H46M3 57H2C1.44772 57 1 57.4477 1 58V86C1 87.6569 2.34315 89 4 89H45C46.6569 89 48 87.6569 48 86V63C48 62.4477 47.5523 62 47 62H46M3 57V42H7M46 62V42H42M41.5 46.5L37.5 50.5M37.5 46.5L41.5 50.5M28 50H24M37.5 34.5L33.5 38.5M33.5 34.5L37.5 38.5M24 38H20M7 42V30H42V42M7 42H42M34 47V50H31V47H34ZM30 35V38H27V35H30Z" stroke="black" stroke-width="2"/>
<path d="M41.5 46.5L37.5 50.5M37.5 46.5L41.5 50.5M28 50H24M37.5 34.5L33.5 38.5M33.5 34.5L37.5 38.5M24 38H20M34 47V50H31V47H34ZM30 35V38H27V35H30Z" stroke="white" stroke-width="2"/>
<path d="M45.739 9.07646V0.5H53.4284C53.2309 1.01723 53.1226 1.57892 53.1226 2.16535C53.1226 4.71996 55.1751 6.79921 57.717 6.79921C60.2589 6.79921 62.3113 4.71996 62.3113 2.16535C62.3113 1.57892 62.2031 1.01723 62.0055 0.5H69.5V21.063C69.5 22.9658 67.9735 24.5 66.1006 24.5H45.739V16.1204V15.2206L44.9749 15.6958C44.4279 16.0361 43.7844 16.2323 43.0943 16.2323C41.1138 16.2323 39.5 14.6098 39.5 12.5984C39.5 10.587 41.1138 8.96457 43.0943 8.96457C43.7844 8.96457 44.4279 9.1608 44.9749 9.50103L45.739 9.97626V9.07646Z" stroke="#5599DA"/>
<defs>
<linearGradient id="paint0_linear" x1="11.2384" y1="46.552" x2="11.2384" y2="88.9988" gradientUnits="userSpaceOnUse">
<stop stop-color="#2CA5EA"/>
<stop offset="1" stop-color="#00C2FF"/>
</linearGradient>
<linearGradient id="paint1_linear" x1="13.4933" y1="25.7459" x2="13.4933" y2="62.3602" gradientUnits="userSpaceOnUse">
<stop stop-color="#A22CEA"/>
<stop offset="1" stop-color="#7000FF"/>
</linearGradient>
</defs>
</svg>
