<svg width="32" height="41" viewBox="0 0 32 41" fill="none" xmlns="http://www.w3.org/2000/svg">
<path fill-rule="evenodd" clip-rule="evenodd" d="M8.06297 15.8746C8.06297 12.9522 5.69388 10.5832 2.77165 10.5832C1.75541 10.5832 0.806102 10.8697 1.25439e-06 11.3664L1.7512e-06 0.000583649L26.9606 0.000584827C29.7438 0.000584949 31.9999 2.25678 31.9999 5.03994L31.9999 32.0005L20.6341 32.0005C21.1306 32.8066 21.4173 33.7559 21.4173 34.7722C21.4173 37.6945 19.0482 40.0635 16.1259 40.0635C13.2037 40.0635 10.8346 37.6945 10.8346 34.7722C10.8346 33.7559 11.1213 32.8066 11.6178 32.0005L3.52444e-07 32.0005L8.60272e-07 20.3827C0.806101 20.8794 1.75541 21.1659 2.77165 21.1659C5.69388 21.1659 8.06297 18.7969 8.06297 15.8746Z" fill="#FF6B67"/>
</svg>
