<svg width="41" height="32" viewBox="0 0 41 32" fill="none" xmlns="http://www.w3.org/2000/svg">
<path fill-rule="evenodd" clip-rule="evenodd" d="M15.8736 23.938C12.9513 23.938 10.5823 26.3071 10.5823 29.2293C10.5823 30.2456 10.8688 31.1949 11.3654 32.001L-0.000392914 32.001L-0.000390557 5.04041C-0.000390314 2.2572 2.2558 0.00105337 5.03897 0.00105361L31.9995 0.00105597L31.9995 11.3669C32.8056 10.8704 33.7549 10.5837 34.7712 10.5837C37.6935 10.5837 40.0625 12.9528 40.0625 15.875C40.0625 18.7973 37.6935 21.1664 34.7712 21.1664C33.7549 21.1664 32.8056 20.8797 31.9995 20.3831L31.9995 32.001L20.3818 32.001C20.8784 31.1949 21.1649 30.2456 21.1649 29.2293C21.1649 26.3071 18.7959 23.938 15.8736 23.938Z" fill="#FFD900"/>
</svg>
