<svg width="300" height="291" viewBox="0 0 300 291" fill="none" xmlns="http://www.w3.org/2000/svg">
<path fill-rule="evenodd" clip-rule="evenodd" d="M299.408 291H50C22.3858 291 0 268.614 0 241V2.70679C19.0973 0.239332 38.4877 -0.501705 57.7746 0.322786C120.4 2.99996 186.843 19.5724 229.117 65.8544C253.825 92.9053 256.771 129.37 259.777 166.574C261.588 188.985 263.42 211.665 270.044 232.717C276.449 253.072 287.972 272.162 299.408 291Z" fill="#C4C4C4"/>
<path fill-rule="evenodd" clip-rule="evenodd" d="M299.408 291H50C22.3858 291 0 268.614 0 241V2.70679C19.0973 0.239332 38.4877 -0.501705 57.7746 0.322786C120.4 2.99996 186.843 19.5724 229.117 65.8544C253.825 92.9053 256.771 129.37 259.777 166.574C261.588 188.985 263.42 211.665 270.044 232.717C276.449 253.072 287.972 272.162 299.408 291Z" fill="url(#paint0_linear)"/>
<defs>
<linearGradient id="paint0_linear" x1="71.5082" y1="0" x2="71.5082" y2="291" gradientUnits="userSpaceOnUse">
<stop stop-color="#A22CEA"/>
<stop offset="1" stop-color="#7000FF"/>
</linearGradient>
</defs>
</svg>
