<svg width="96" height="96" viewBox="0 0 96 96" fill="none" xmlns="http://www.w3.org/2000/svg">
<path fill-rule="evenodd" clip-rule="evenodd" d="M96 72.5639C93.7257 73.7774 91.4866 75.0417 89.3649 76.4441C86.4278 78.3856 83.6391 80.5625 80.8678 82.7258C74.119 87.994 67.4733 93.1816 59.038 94.6937C45.6492 97.0937 30.8096 96.7296 19.6486 88.9412C8.40558 81.0957 2.39311 67.3045 0.338881 53.7325C-1.15246 43.8794 2.54325 34.6163 6.25584 25.3108C7.18294 22.9871 8.11109 20.6608 8.95978 18.3219C9.62537 16.4877 10.2601 14.639 10.8938 12.7934C12.3904 8.43455 13.8811 4.09303 15.758 0H46C73.6142 0 96 22.3858 96 50V72.5639Z" fill="#F8F8F8"/>
<path fill-rule="evenodd" clip-rule="evenodd" d="M96 72.5639C93.7257 73.7774 91.4866 75.0417 89.3649 76.4441C86.4278 78.3856 83.6391 80.5625 80.8678 82.7258C74.119 87.994 67.4733 93.1816 59.038 94.6937C45.6492 97.0937 30.8096 96.7296 19.6486 88.9412C8.40558 81.0957 2.39311 67.3045 0.338881 53.7325C-1.15246 43.8794 2.54325 34.6163 6.25584 25.3108C7.18294 22.9871 8.11109 20.6608 8.95978 18.3219C9.62537 16.4877 10.2601 14.639 10.8938 12.7934C12.3904 8.43455 13.8811 4.09303 15.758 0H46C73.6142 0 96 22.3858 96 50V72.5639Z" fill="#216CFF"/>
</svg>
