<svg width="90" height="91" viewBox="0 0 90 91" fill="none" xmlns="http://www.w3.org/2000/svg">
<path fill-rule="evenodd" clip-rule="evenodd" d="M42.6706 8.41366C49.5904 10.5217 55.1667 14.4172 61.7955 17.2442C70.8926 21.1237 84.1985 19.5805 88.6783 28.0342C93.0483 36.2809 85.5325 45.8041 81.345 54.1356C77.6807 61.426 72.1891 67.1767 66.1453 72.8654C58.8762 79.7073 52.8827 89.8196 42.6706 90.5373C32.4072 91.2586 23.9481 83.115 16.5253 76.3525C9.93127 70.345 5.8249 62.6911 3.03899 54.4307C0.265144 46.206 -0.799888 37.7871 0.643207 29.261C2.31272 19.3971 2.57308 6.67487 11.9054 2.04564C21.4402 -2.68402 32.4263 5.29281 42.6706 8.41366Z" fill="#C4C4C4"/>
<path fill-rule="evenodd" clip-rule="evenodd" d="M42.6706 8.41366C49.5904 10.5217 55.1667 14.4172 61.7955 17.2442C70.8926 21.1237 84.1985 19.5805 88.6783 28.0342C93.0483 36.2809 85.5325 45.8041 81.345 54.1356C77.6807 61.426 72.1891 67.1767 66.1453 72.8654C58.8762 79.7073 52.8827 89.8196 42.6706 90.5373C32.4072 91.2586 23.9481 83.115 16.5253 76.3525C9.93127 70.345 5.8249 62.6911 3.03899 54.4307C0.265144 46.206 -0.799888 37.7871 0.643207 29.261C2.31272 19.3971 2.57308 6.67487 11.9054 2.04564C21.4402 -2.68402 32.4263 5.29281 42.6706 8.41366Z" fill="url(#paint0_linear)"/>
<defs>
<linearGradient id="paint0_linear" x1="21.4949" y1="0.582031" x2="21.4949" y2="90.582" gradientUnits="userSpaceOnUse">
<stop stop-color="#A22CEA"/>
<stop offset="1" stop-color="#7000FF"/>
</linearGradient>
</defs>
</svg>
