<svg width="30" height="50" viewBox="0 0 30 50" fill="none" xmlns="http://www.w3.org/2000/svg">
<path d="M6 7.58203V9.58203M12 4.58203V6.58203M24 7.58203V9.58203M18 4.58203V6.58203M12 6.58203V9.58203H9H6M12 6.58203H15M18 6.58203V9.58203H21H24M18 6.58203H15M24 9.58203V12.582H29V15.582H21H12H9H6H1V12.582H6V9.58203M15 6.58203V0.582031M1 20.582H8V24.582H7V35.582C7 40.0003 10.5817 43.582 15 43.582V43.582C19.4183 43.582 23 40.0003 23 35.582V24.582H22V20.582H29V24.582H28V35.582C28 42.7617 22.1797 48.582 15 48.582V48.582C7.8203 48.582 2 42.7617 2 35.582V24.582H1V20.582Z" stroke="white" stroke-width="2"/>
</svg>
