<svg width="90" height="91" viewBox="0 0 90 91" fill="none" xmlns="http://www.w3.org/2000/svg">
<path fill-rule="evenodd" clip-rule="evenodd" d="M38.534 0.812831C48.8322 2.29792 52.8016 14.291 61.2909 20.0014C69.9234 25.8082 83.851 25.2462 88.3454 34.3189C92.8469 43.4062 87.2215 54.1232 82.6884 63.1964C78.6124 71.3548 72.0679 77.9495 64.0814 82.8851C56.4208 87.6194 47.6507 91.2312 38.534 90.4838C29.8149 89.769 22.407 84.5971 16.0136 78.9445C10.2519 73.8504 6.93618 67.1765 4.24234 60.1654C1.44965 52.897 -0.721985 45.5353 0.225543 37.854C1.35211 28.7213 3.30948 19.1932 10.1073 12.6203C17.5255 5.44745 28.0465 -0.699542 38.534 0.812831Z" fill="#C4C4C4"/>
<path fill-rule="evenodd" clip-rule="evenodd" d="M38.534 0.812831C48.8322 2.29792 52.8016 14.291 61.2909 20.0014C69.9234 25.8082 83.851 25.2462 88.3454 34.3189C92.8469 43.4062 87.2215 54.1232 82.6884 63.1964C78.6124 71.3548 72.0679 77.9495 64.0814 82.8851C56.4208 87.6194 47.6507 91.2312 38.534 90.4838C29.8149 89.769 22.407 84.5971 16.0136 78.9445C10.2519 73.8504 6.93618 67.1765 4.24234 60.1654C1.44965 52.897 -0.721985 45.5353 0.225543 37.854C1.35211 28.7213 3.30948 19.1932 10.1073 12.6203C17.5255 5.44745 28.0465 -0.699542 38.534 0.812831Z" fill="url(#paint0_linear)"/>
<defs>
<linearGradient id="paint0_linear" x1="21.4949" y1="0.582031" x2="21.4949" y2="90.582" gradientUnits="userSpaceOnUse">
<stop stop-color="#A22CEA"/>
<stop offset="1" stop-color="#7000FF"/>
</linearGradient>
</defs>
</svg>
