<svg width="48" height="53" viewBox="0 0 48 53" fill="none" xmlns="http://www.w3.org/2000/svg">
<path d="M42 29.582V19.582C42 9.64091 33.9411 1.58203 24 1.58203V1.58203C14.0589 1.58203 6 9.64091 6 19.582V29.582M42 29.582L40 39.082L38.0044 45.4014C37.382 47.3723 35.7639 48.8673 33.75 49.332V49.332L30.5 50.082L27.25 49.832L24 51.582L20.75 49.832L17.5 50.082V50.082C13.4722 49.1525 10.236 46.1627 8.9912 42.2208L8 39.082L6 29.582M42 29.582L36.7109 31.809C34.0306 32.9375 30.9973 32.8749 28.366 31.6366V31.6366C25.6008 30.3353 22.3992 30.3353 19.634 31.6366V31.6366C17.0027 32.8749 13.9694 32.9375 11.2891 31.809L6 29.582M42 15.582V15.582C44.7614 15.582 47 17.8206 47 20.582V21.582C47 24.3435 44.7614 26.582 42 26.582V26.582M6 15.582V15.582C3.23858 15.582 1 17.8206 1 20.582V21.582C1 24.3435 3.23858 26.582 6 26.582V26.582M21 37.582V37.582C22.9473 38.2311 25.0527 38.2311 27 37.582V37.582M19.5 19.582V19.582C22.225 17.7654 25.775 17.7654 28.5 19.582V19.582M35 15.582H30C28.8954 15.582 28 16.4775 28 17.582V20.582C28 21.6866 28.8954 22.582 30 22.582H35C36.1046 22.582 37 21.6866 37 20.582V17.582C37 16.4775 36.1046 15.582 35 15.582ZM13 22.582H18C19.1046 22.582 20 21.6866 20 20.582V17.582C20 16.4775 19.1046 15.582 18 15.582H13C11.8954 15.582 11 16.4775 11 17.582V20.582C11 21.6866 11.8954 22.582 13 22.582Z" stroke="white" stroke-width="2"/>
</svg>
