<svg width="90" height="91" viewBox="0 0 90 91" fill="none" xmlns="http://www.w3.org/2000/svg">
<path fill-rule="evenodd" clip-rule="evenodd" d="M46.6811 4.4108C56.5823 2.98806 67.2089 -2.30459 75.9011 2.66895C84.7061 7.70699 88.1372 18.9789 89.7212 29.0376C91.1502 38.1123 86.7477 46.524 84.1965 55.3466C81.5394 64.5356 81.476 75.0754 74.5197 81.6085C67.2207 88.4634 56.67 90.6619 46.6811 90.5798C36.7503 90.4982 27.3277 86.8484 19.1713 81.1534C10.8719 75.3585 2.33062 68.1868 0.345756 58.2271C-1.57619 48.5832 4.95185 39.7221 9.14328 30.8346C12.7559 23.1744 16.0515 15.1392 22.9598 10.2763C29.797 5.46341 38.418 5.59816 46.6811 4.4108Z" fill="#C4C4C4"/>
<path fill-rule="evenodd" clip-rule="evenodd" d="M46.6811 4.4108C56.5823 2.98806 67.2089 -2.30459 75.9011 2.66895C84.7061 7.70699 88.1372 18.9789 89.7212 29.0376C91.1502 38.1123 86.7477 46.524 84.1965 55.3466C81.5394 64.5356 81.476 75.0754 74.5197 81.6085C67.2207 88.4634 56.67 90.6619 46.6811 90.5798C36.7503 90.4982 27.3277 86.8484 19.1713 81.1534C10.8719 75.3585 2.33062 68.1868 0.345756 58.2271C-1.57619 48.5832 4.95185 39.7221 9.14328 30.8346C12.7559 23.1744 16.0515 15.1392 22.9598 10.2763C29.797 5.46341 38.418 5.59816 46.6811 4.4108Z" fill="url(#paint0_linear)"/>
<defs>
<linearGradient id="paint0_linear" x1="21.4949" y1="0.582031" x2="21.4949" y2="90.582" gradientUnits="userSpaceOnUse">
<stop stop-color="#A22CEA"/>
<stop offset="1" stop-color="#7000FF"/>
</linearGradient>
</defs>
</svg>
