<svg width="26" height="99" viewBox="0 0 26 99" fill="none" xmlns="http://www.w3.org/2000/svg">
<path d="M25.511 10.8301C25.511 8.26118 23.632 6.08514 21.0597 5.37805C21.1358 5.06398 21.1781 4.74095 21.1781 4.41086C21.1781 1.97873 19.0194 0 16.3662 0C14.929 0 13.6379 0.581208 12.7555 1.49986C11.873 0.581208 10.5818 0 9.14476 0C6.49145 0 4.33287 1.97873 4.33287 4.41086C4.33287 4.74095 4.37515 5.06398 4.45122 5.37805C1.87895 6.08498 7.04925e-08 8.26102 7.04925e-08 10.8301C7.04925e-08 12.0856 0.444274 13.2701 1.26507 14.2483C0.462532 15.2872 7.04925e-08 16.5485 7.04925e-08 17.8912C-0.000320242 19.9335 1.09099 21.8405 2.88842 23.0234C2.88842 23.0244 2.88842 23.0254 2.88842 23.0263C2.88842 25.8124 5.371 28.0791 8.42262 28.0791C10.1763 28.0791 11.7409 27.3297 12.7555 26.1641C13.7701 27.3297 15.3346 28.0791 17.0884 28.0791C20.0251 28.0791 22.4337 25.9794 22.6109 23.3381C24.3945 22.3032 25.511 20.4904 25.511 18.533C25.511 17.0932 24.8971 15.7197 23.8405 14.6815C24.8969 13.6434 25.511 12.2697 25.511 10.8301ZM21.2598 15.7437C22.4172 16.3545 23.1081 17.3973 23.1081 18.533C23.1081 19.3797 22.7146 20.1874 22.05 20.7913C21.4185 19.622 20.3024 18.6912 18.8922 18.2482C18.2596 18.0495 17.5852 18.4013 17.3862 19.0341C17.1873 19.667 17.5394 20.3413 18.1721 20.54C19.3967 20.9249 20.2196 21.9241 20.2196 23.0265C20.2196 24.4879 18.8147 25.6769 17.0877 25.6769C15.3609 25.6769 13.956 24.4879 13.956 23.0265V15.3234C13.956 13.862 15.3609 12.6732 17.0877 12.6732C17.7511 12.6732 18.2889 12.1354 18.2889 11.472C18.2889 10.8086 17.7511 10.2708 17.0877 10.2708C15.9259 10.2708 14.8471 10.6001 13.956 11.1608V9.62652C13.956 8.96315 13.4182 8.42534 12.7548 8.42534C12.0915 8.42534 11.5537 8.96315 11.5537 9.62652V16.2949C11.1494 16.0413 10.7061 15.8313 10.2266 15.6806C9.59336 15.4817 8.91942 15.8337 8.72067 16.4663C8.52176 17.0992 8.87362 17.7735 9.5064 17.9724C10.731 18.3573 11.5537 19.3565 11.5537 20.4587V23.0263C11.5537 24.4877 10.1488 25.6767 8.42198 25.6767C6.69501 25.6767 5.29012 24.4877 5.29012 23.0263C5.29012 22.3999 5.55566 21.791 6.03773 21.3118C6.50827 20.8442 6.51051 20.0836 6.04286 19.6131C5.5752 19.1425 4.81478 19.1403 4.34424 19.6079C4.05644 19.8941 3.80868 20.2068 3.60272 20.5391C2.84422 19.8216 2.40138 18.8776 2.40138 17.8909C2.40138 16.1112 3.79811 14.5478 5.79798 14.0889C6.44453 13.9406 6.84844 13.2962 6.70014 12.6496C6.55183 12.0029 5.90721 11.5992 5.26081 11.7475C4.45571 11.9321 3.71451 12.2404 3.05722 12.6451C2.63105 12.1099 2.40155 11.483 2.40155 10.8298C2.40203 9.02305 4.11474 7.55217 6.22608 7.53824C6.23681 7.53856 6.24754 7.54 6.25811 7.54C6.5323 7.54 6.80792 7.44663 7.03358 7.25556C7.49403 6.86574 7.58644 6.20429 7.27734 5.70669C7.26821 5.69195 7.25988 5.6769 7.25028 5.66265C7.24531 5.65544 7.23938 5.64855 7.23426 5.64134C7.21568 5.61524 7.19662 5.58962 7.17596 5.56495C7.17532 5.56415 7.17484 5.56335 7.1742 5.56271C6.97384 5.32584 6.73473 4.93378 6.73473 4.41071C6.73473 3.30322 7.81579 2.40219 9.14428 2.40219C10.4728 2.40219 11.5538 3.30322 11.5538 4.41071C11.5538 5.07407 12.0916 5.61188 12.755 5.61188C13.4184 5.61188 13.9562 5.07407 13.9562 4.41071C13.9562 3.30322 15.0372 2.40219 16.3657 2.40219C17.6942 2.40219 18.7753 3.30322 18.7753 4.41071C18.7753 4.70667 18.6978 4.95908 18.5951 5.16664C17.9119 5.23119 17.2511 5.39631 16.6237 5.66089C16.0124 5.91858 15.7259 6.6231 15.9836 7.23442C16.2413 7.84558 16.9458 8.13242 17.5571 7.87456C18.0764 7.65563 18.635 7.54304 19.2176 7.53856C19.2292 7.53888 19.2405 7.54 19.2521 7.54C19.2628 7.54 19.2734 7.53856 19.2841 7.53824C21.3954 7.55201 23.1081 9.02305 23.1081 10.8298C23.1081 11.9654 22.4172 13.0081 21.2598 13.6191C20.8658 13.8269 20.6192 14.2358 20.6192 14.6814C20.6192 15.1269 20.8658 15.5358 21.2598 15.7437Z" fill="black"/>
<path d="M9.75586 71.5781L12.7559 74.0781L15.2559 70.5781L19.7559 73.0781L20.2559 76.0781L24.7559 80.5781L22.7559 85.0781L24.2559 89.5781L21.7559 92.5781L20.7559 95.5781L16.7559 97.5781L12.7559 94.5781L9.75586 97.0781L5.75586 96.5781L4.25586 92.5781L0.755859 89.0781L2.75586 84.0781L1.25586 79.5781L5.25586 76.0781L6.25586 72.5781L9.75586 71.5781Z" fill="#1AB2F3"/>
<path d="M9.75586 71.5781L12.7559 74.0781L15.2559 70.5781L19.7559 73.0781L20.2559 76.0781L24.7559 80.5781L22.7559 85.0781L24.2559 89.5781L21.7559 92.5781L20.7559 95.5781L16.7559 97.5781L12.7559 94.5781L9.75586 97.0781L5.75586 96.5781L4.25586 92.5781L0.755859 89.0781L2.75586 84.0781L1.25586 79.5781L5.25586 76.0781L6.25586 72.5781L9.75586 71.5781Z" fill="url(#paint0_linear)"/>
<path d="M25.511 80.8301C25.511 78.2612 23.632 76.0851 21.0597 75.378C21.1358 75.064 21.1781 74.7409 21.1781 74.4109C21.1781 71.9787 19.0194 70 16.3662 70C14.929 70 13.6379 70.5812 12.7555 71.4999C11.873 70.5812 10.5818 70 9.14476 70C6.49145 70 4.33287 71.9787 4.33287 74.4109C4.33287 74.7409 4.37515 75.064 4.45122 75.378C1.87895 76.085 7.04925e-08 78.261 7.04925e-08 80.8301C7.04925e-08 82.0856 0.444274 83.2701 1.26507 84.2483C0.462532 85.2872 7.04925e-08 86.5485 7.04925e-08 87.8912C-0.000320242 89.9335 1.09099 91.8405 2.88842 93.0234C2.88842 93.0244 2.88842 93.0254 2.88842 93.0263C2.88842 95.8124 5.371 98.0791 8.42262 98.0791C10.1763 98.0791 11.7409 97.3297 12.7555 96.1641C13.7701 97.3297 15.3346 98.0791 17.0884 98.0791C20.0251 98.0791 22.4337 95.9794 22.6109 93.3381C24.3945 92.3032 25.511 90.4904 25.511 88.533C25.511 87.0932 24.8971 85.7197 23.8405 84.6815C24.8969 83.6434 25.511 82.2697 25.511 80.8301ZM21.2598 85.7437C22.4172 86.3545 23.1081 87.3973 23.1081 88.533C23.1081 89.3797 22.7146 90.1874 22.05 90.7913C21.4185 89.622 20.3024 88.6912 18.8922 88.2482C18.2596 88.0495 17.5852 88.4013 17.3862 89.0341C17.1873 89.667 17.5394 90.3413 18.1721 90.54C19.3967 90.9249 20.2196 91.9241 20.2196 93.0265C20.2196 94.4879 18.8147 95.6769 17.0877 95.6769C15.3609 95.6769 13.956 94.4879 13.956 93.0265V85.3234C13.956 83.862 15.3609 82.6732 17.0877 82.6732C17.7511 82.6732 18.2889 82.1354 18.2889 81.472C18.2889 80.8086 17.7511 80.2708 17.0877 80.2708C15.9259 80.2708 14.8471 80.6001 13.956 81.1608V79.6265C13.956 78.9631 13.4182 78.4253 12.7548 78.4253C12.0915 78.4253 11.5537 78.9631 11.5537 79.6265V86.2949C11.1494 86.0413 10.7061 85.8313 10.2266 85.6806C9.59336 85.4817 8.91942 85.8337 8.72067 86.4663C8.52176 87.0992 8.87362 87.7735 9.5064 87.9724C10.731 88.3573 11.5537 89.3565 11.5537 90.4587V93.0263C11.5537 94.4877 10.1488 95.6767 8.42198 95.6767C6.69501 95.6767 5.29012 94.4877 5.29012 93.0263C5.29012 92.3999 5.55566 91.791 6.03773 91.3118C6.50827 90.8442 6.51051 90.0836 6.04286 89.6131C5.5752 89.1425 4.81478 89.1403 4.34424 89.6079C4.05644 89.8941 3.80868 90.2068 3.60272 90.5391C2.84422 89.8216 2.40138 88.8776 2.40138 87.8909C2.40138 86.1112 3.79811 84.5478 5.79798 84.0889C6.44453 83.9406 6.84844 83.2962 6.70014 82.6496C6.55183 82.0029 5.90721 81.5992 5.26081 81.7475C4.45571 81.9321 3.71451 82.2404 3.05722 82.6451C2.63105 82.1099 2.40155 81.483 2.40155 80.8298C2.40203 79.023 4.11474 77.5522 6.22608 77.5382C6.23681 77.5386 6.24754 77.54 6.25811 77.54C6.5323 77.54 6.80792 77.4466 7.03358 77.2556C7.49403 76.8657 7.58644 76.2043 7.27734 75.7067C7.26821 75.692 7.25988 75.6769 7.25028 75.6626C7.24531 75.6554 7.23938 75.6486 7.23426 75.6413C7.21568 75.6152 7.19662 75.5896 7.17596 75.565C7.17532 75.5642 7.17484 75.5633 7.1742 75.5627C6.97384 75.3258 6.73473 74.9338 6.73473 74.4107C6.73473 73.3032 7.81579 72.4022 9.14428 72.4022C10.4728 72.4022 11.5538 73.3032 11.5538 74.4107C11.5538 75.0741 12.0916 75.6119 12.755 75.6119C13.4184 75.6119 13.9562 75.0741 13.9562 74.4107C13.9562 73.3032 15.0372 72.4022 16.3657 72.4022C17.6942 72.4022 18.7753 73.3032 18.7753 74.4107C18.7753 74.7067 18.6978 74.9591 18.5951 75.1666C17.9119 75.2312 17.2511 75.3963 16.6237 75.6609C16.0124 75.9186 15.7259 76.6231 15.9836 77.2344C16.2413 77.8456 16.9458 78.1324 17.5571 77.8746C18.0764 77.6556 18.635 77.543 19.2176 77.5386C19.2292 77.5389 19.2405 77.54 19.2521 77.54C19.2628 77.54 19.2734 77.5386 19.2841 77.5382C21.3954 77.552 23.1081 79.023 23.1081 80.8298C23.1081 81.9654 22.4172 83.0081 21.2598 83.6191C20.8658 83.8269 20.6192 84.2358 20.6192 84.6814C20.6192 85.1269 20.8658 85.5358 21.2598 85.7437Z" fill="black"/>
<path d="M14 42C14 41.4477 13.5523 41 13 41C12.4477 41 12 41.4477 12 42H14ZM12.2929 57.7071C12.6834 58.0976 13.3166 58.0976 13.7071 57.7071L20.0711 51.3431C20.4616 50.9526 20.4616 50.3195 20.0711 49.9289C19.6805 49.5384 19.0474 49.5384 18.6569 49.9289L13 55.5858L7.34315 49.9289C6.95262 49.5384 6.31946 49.5384 5.92893 49.9289C5.53841 50.3195 5.53841 50.9526 5.92893 51.3431L12.2929 57.7071ZM12 42V57H14V42H12Z" fill="#404040"/>
<defs>
<linearGradient id="paint0_linear" x1="6.48782" y1="70.5781" x2="6.48782" y2="97.5781" gradientUnits="userSpaceOnUse">
<stop stop-color="#A22CEA"/>
<stop offset="1" stop-color="#7000FF"/>
</linearGradient>
</defs>
</svg>
