<svg width="297" height="23" viewBox="0 0 297 23" fill="none" xmlns="http://www.w3.org/2000/svg">
<path d="M0 22.8086V0.159501H8.58322C10.4277 0.159501 12.0521 0.457235 13.4565 1.0527C14.8608 1.64817 16.0346 2.45631 16.9778 3.47712C17.921 4.49792 18.6337 5.69949 19.1157 7.08183C19.5978 8.4429 19.8389 9.89968 19.8389 11.4522C19.8389 13.1748 19.5664 14.7379 19.0214 16.1415C18.4974 17.5238 17.7429 18.7147 16.7577 19.7143C15.7726 20.6926 14.5883 21.4582 13.205 22.0111C11.8216 22.5428 10.281 22.8086 8.58322 22.8086H0ZM13.6137 11.4522C13.6137 10.5802 13.4984 9.78271 13.2678 9.05964C13.0373 8.33657 12.7019 7.71983 12.2617 7.20943C11.8425 6.69903 11.3185 6.30559 10.6897 6.02913C10.0609 5.73139 9.35875 5.58252 8.58322 5.58252H6.13087V17.3856H8.58322C9.37971 17.3856 10.0924 17.2367 10.7212 16.939C11.35 16.6412 11.874 16.2265 12.2932 15.6949C12.7334 15.1632 13.0582 14.5358 13.2678 13.8128C13.4984 13.0897 13.6137 12.3028 13.6137 11.4522Z" fill="#5F5F5F"/>
<path d="M32.5666 23C30.8688 23 29.3282 22.6704 27.9448 22.0111C26.5615 21.3518 25.3772 20.4905 24.3921 19.4272C23.4069 18.3426 22.6419 17.1091 22.0969 15.7268C21.552 14.3444 21.2795 12.9196 21.2795 11.4522C21.2795 9.96348 21.5624 8.52797 22.1284 7.14563C22.6943 5.76329 23.4803 4.55109 24.4864 3.50902C25.5135 2.44568 26.7187 1.60564 28.102 0.988905C29.5064 0.350902 31.0365 0.0318999 32.6923 0.0318999C34.3901 0.0318999 35.9307 0.361535 37.3141 1.02081C38.6975 1.68007 39.8817 2.55201 40.8668 3.63662C41.852 4.72122 42.6065 5.95469 43.1305 7.33703C43.6755 8.71937 43.948 10.1336 43.948 11.5798C43.948 13.0684 43.665 14.5039 43.0991 15.8863C42.5332 17.2473 41.7472 18.4595 40.7411 19.5229C39.735 20.565 38.5298 21.405 37.1254 22.043C35.7421 22.681 34.2224 23 32.5666 23ZM27.5047 11.516C27.5047 12.2816 27.6095 13.0259 27.8191 13.749C28.0287 14.4508 28.3431 15.0781 28.7623 15.6311C29.1815 16.184 29.7055 16.6306 30.3343 16.9709C30.9841 17.3111 31.7491 17.4813 32.6295 17.4813C33.5098 17.4813 34.2748 17.3111 34.9246 16.9709C35.5744 16.6093 36.0984 16.1521 36.4966 15.5992C36.9158 15.025 37.2197 14.3763 37.4084 13.6533C37.618 12.9302 37.7228 12.1965 37.7228 11.4522C37.7228 10.6865 37.618 9.95284 37.4084 9.25104C37.1988 8.52797 36.8739 7.9006 36.4337 7.36893C36.0145 6.816 35.4801 6.38003 34.8303 6.06103C34.2015 5.72076 33.4574 5.55063 32.598 5.55063C31.7177 5.55063 30.9526 5.72076 30.3029 6.06103C29.6741 6.4013 29.1501 6.85853 28.7309 7.43273C28.3116 7.98567 27.9972 8.62367 27.7876 9.34674C27.599 10.0485 27.5047 10.7716 27.5047 11.516Z" fill="#5F5F5F"/>
<path d="M46.5465 22.8086V0.159501H52.6774V17.3856H62.8012V22.8086H46.5465Z" fill="#5F5F5F"/>
<path d="M64.9379 22.8086V0.159501H71.0688V22.8086H64.9379Z" fill="#5F5F5F"/>
<path d="M81.0474 11.6755V22.8086H74.9165V0.159501H79.6955L88.656 11.6755V0.159501H94.7868V22.8086H89.9136L81.0474 11.6755Z" fill="#5F5F5F"/>
<path d="M113.774 20.9265C112.181 22.2876 110.347 22.9681 108.272 22.9681C106.826 22.9681 105.442 22.7129 104.122 22.2025C102.801 21.6708 101.648 20.9052 100.663 19.9057C99.6781 18.9061 98.8921 17.6833 98.3052 16.2372C97.7183 14.791 97.4249 13.1429 97.4249 11.2926C97.4249 9.69764 97.7183 8.2196 98.3052 6.85853C98.8921 5.47619 99.6991 4.28525 100.726 3.28571C101.753 2.26491 102.958 1.46741 104.342 0.893204C105.746 0.297734 107.255 0 108.869 0C109.875 0 110.839 0.116967 111.762 0.350901C112.684 0.563569 113.533 0.893205 114.308 1.33981C115.105 1.76514 115.817 2.28618 116.446 2.90291C117.075 3.49838 117.589 4.17892 117.987 4.94452L113.428 8.48544C112.988 7.59223 112.328 6.8798 111.447 6.34813C110.567 5.79519 109.634 5.51872 108.649 5.51872C107.915 5.51872 107.245 5.66759 106.637 5.96533C106.029 6.26306 105.505 6.67776 105.065 7.20943C104.625 7.7411 104.279 8.3791 104.027 9.12344C103.776 9.84651 103.65 10.644 103.65 11.516C103.65 12.4092 103.776 13.2173 104.027 13.9404C104.279 14.6634 104.625 15.2908 105.065 15.8225C105.526 16.3329 106.071 16.7369 106.7 17.0347C107.329 17.3111 108.031 17.4494 108.806 17.4494C110.588 17.4494 112.16 16.705 113.522 15.2164H109.655V10.7503H118.836V22.8086H113.774V20.9265Z" fill="#5F5F5F"/>
<path d="M137.771 17.3856V22.8086H121.862V0.159501H137.488V5.58252H127.993V8.77254H136.105V13.8128H127.993V17.3856H137.771Z" fill="#5F5F5F"/>
<path d="M140.622 22.8086V0.159501H150.872C151.961 0.159501 152.968 0.393435 153.89 0.861304C154.812 1.30791 155.598 1.90337 156.248 2.64771C156.919 3.37078 157.443 4.21082 157.82 5.16782C158.197 6.10356 158.386 7.04993 158.386 8.00694C158.386 9.32547 158.103 10.5589 157.537 11.7074C156.971 12.8345 156.185 13.7596 155.179 14.4827L159.895 22.8086H152.978L149.048 15.8544H146.753V22.8086H140.622ZM146.753 10.4313H150.62C150.997 10.4313 151.343 10.2187 151.658 9.79334C151.993 9.36801 152.161 8.77254 152.161 8.00694C152.161 7.22007 151.972 6.6246 151.595 6.22053C151.217 5.79519 150.84 5.58252 150.463 5.58252H146.753V10.4313Z" fill="#5F5F5F"/>
<path d="M183.843 3.92372C182.396 2.28618 180.353 1.46741 177.712 1.46741C175.532 1.46741 173.939 1.89274 172.933 2.74341C171.948 3.57282 171.455 4.69995 171.455 6.12483C171.455 6.8479 171.581 7.454 171.832 7.94313C172.084 8.411 172.472 8.81507 172.996 9.15534C173.541 9.49561 174.222 9.78271 175.039 10.0166C175.857 10.2506 176.842 10.4951 177.995 10.7503C179.189 11.0055 180.269 11.2926 181.233 11.6117C182.218 11.9094 183.046 12.2922 183.717 12.7601C184.409 13.2279 184.933 13.8021 185.289 14.4827C185.666 15.1632 185.855 16.0032 185.855 17.0028C185.855 18.0023 185.656 18.8743 185.257 19.6186C184.88 20.3629 184.335 20.9903 183.623 21.5007C182.931 21.9898 182.092 22.362 181.107 22.6172C180.143 22.8724 179.064 23 177.869 23C174.39 23 171.445 21.8729 169.034 19.6186L169.883 18.3107C170.826 19.3102 171.979 20.1077 173.342 20.7032C174.704 21.2774 176.234 21.5645 177.932 21.5645C179.881 21.5645 181.401 21.203 182.491 20.4799C183.602 19.7568 184.157 18.6616 184.157 17.1942C184.157 16.4498 184.01 15.8225 183.717 15.3121C183.423 14.7804 182.983 14.3232 182.396 13.9404C181.83 13.5576 181.107 13.2279 180.227 12.9515C179.347 12.675 178.32 12.4092 177.146 12.154C175.951 11.8988 174.893 11.6329 173.97 11.3564C173.069 11.0587 172.304 10.6972 171.675 10.2718C171.067 9.82524 170.606 9.29357 170.292 8.67684C169.977 8.0601 169.82 7.28387 169.82 6.34813C169.82 5.32732 170.009 4.42349 170.386 3.63662C170.784 2.84975 171.329 2.19048 172.021 1.65881C172.713 1.10587 173.541 0.69117 174.505 0.414702C175.469 0.138234 176.538 0 177.712 0C179.158 0 180.447 0.223301 181.579 0.669904C182.711 1.09524 183.738 1.75451 184.66 2.64771L183.843 3.92372Z" fill="#5F5F5F"/>
<path d="M188.353 11.3245C188.353 9.96348 188.584 8.61304 189.045 7.27323C189.527 5.91216 190.219 4.69996 191.12 3.63662C192.021 2.57328 193.122 1.71197 194.421 1.0527C195.742 0.372168 197.241 0.0318999 198.917 0.0318999C200.909 0.0318999 202.606 0.499769 204.011 1.43551C205.415 2.34998 206.463 3.53028 207.155 4.97642L205.834 5.74203C205.436 4.95516 204.964 4.29589 204.419 3.76422C203.895 3.23255 203.319 2.80721 202.69 2.48821C202.082 2.14794 201.443 1.90337 200.772 1.75451C200.102 1.60564 199.441 1.53121 198.792 1.53121C197.366 1.53121 196.109 1.82894 195.019 2.42441C193.929 2.99861 193.007 3.75358 192.252 4.68932C191.497 5.62506 190.921 6.6884 190.523 7.87933C190.145 9.04901 189.957 10.2293 189.957 11.4202C189.957 12.7601 190.187 14.0361 190.649 15.2483C191.11 16.4605 191.738 17.5344 192.535 18.4702C193.331 19.3847 194.275 20.1184 195.365 20.6713C196.455 21.2242 197.628 21.5007 198.886 21.5007C199.557 21.5007 200.248 21.4156 200.961 21.2455C201.674 21.0754 202.355 20.8095 203.005 20.448C203.654 20.0865 204.262 19.6292 204.828 19.0763C205.394 18.5021 205.866 17.8322 206.243 17.0666L207.626 17.7365C207.249 18.5871 206.736 19.3421 206.086 20.0014C205.436 20.6607 204.713 21.2136 203.916 21.6602C203.12 22.1068 202.271 22.4471 201.37 22.681C200.489 22.8937 199.62 23 198.76 23C197.23 23 195.826 22.6597 194.547 21.9792C193.29 21.2987 192.2 20.4161 191.277 19.3315C190.355 18.2256 189.632 16.9815 189.108 15.5992C188.605 14.1956 188.353 12.7707 188.353 11.3245Z" fill="#5F5F5F"/>
<path d="M228.894 0.159501V22.8086H227.29V11.9626H213.205V22.8086H211.601V0.159501H213.205V10.4951H227.29V0.159501H228.894Z" fill="#5F5F5F"/>
<path d="M243.619 22.9681C242.068 22.9681 240.653 22.6385 239.374 21.9792C238.096 21.3199 236.995 20.4586 236.073 19.3953C235.151 18.3319 234.438 17.1091 233.935 15.7268C233.432 14.3444 233.18 12.9302 233.18 11.4841C233.18 9.97411 233.442 8.52797 233.966 7.14563C234.511 5.76329 235.245 4.54045 236.167 3.47712C237.111 2.41378 238.221 1.57374 239.5 0.957004C240.779 0.319001 242.162 0 243.65 0C245.201 0 246.616 0.340269 247.895 1.02081C249.194 1.68007 250.295 2.55201 251.196 3.63662C252.118 4.72122 252.831 5.95469 253.334 7.33703C253.837 8.6981 254.088 10.0804 254.088 11.4841C254.088 13.0153 253.816 14.472 253.271 15.8544C252.747 17.2367 252.013 18.4595 251.07 19.5229C250.148 20.565 249.047 21.405 247.769 22.043C246.49 22.6597 245.107 22.9681 243.619 22.9681ZM234.784 11.4841C234.784 12.7813 234.994 14.0361 235.413 15.2483C235.853 16.4392 236.461 17.5025 237.236 18.4383C238.033 19.3528 238.976 20.0865 240.066 20.6394C241.156 21.1923 242.351 21.4688 243.65 21.4688C244.992 21.4688 246.197 21.1817 247.266 20.6075C248.356 20.0333 249.278 19.2783 250.033 18.3426C250.808 17.3856 251.405 16.3116 251.825 15.1207C252.244 13.9297 252.453 12.7175 252.453 11.4841C252.453 10.1868 252.233 8.94267 251.793 7.75173C251.353 6.53953 250.735 5.47619 249.938 4.56172C249.163 3.62598 248.24 2.88165 247.171 2.32871C246.102 1.77577 244.929 1.49931 243.65 1.49931C242.309 1.49931 241.093 1.78641 240.003 2.36061C238.913 2.93481 237.98 3.70042 237.205 4.65742C236.429 5.59316 235.832 6.6565 235.413 7.84743C234.994 9.03837 234.784 10.2506 234.784 11.4841Z" fill="#5F5F5F"/>
<path d="M267.291 22.9681C265.74 22.9681 264.325 22.6385 263.047 21.9792C261.768 21.3199 260.668 20.4586 259.745 19.3953C258.823 18.3319 258.11 17.1091 257.607 15.7268C257.104 14.3444 256.853 12.9302 256.853 11.4841C256.853 9.97411 257.115 8.52797 257.639 7.14563C258.184 5.76329 258.917 4.54045 259.84 3.47712C260.783 2.41378 261.894 1.57374 263.172 0.957004C264.451 0.319001 265.834 0 267.323 0C268.874 0 270.288 0.340269 271.567 1.02081C272.867 1.68007 273.967 2.55201 274.868 3.63662C275.79 4.72122 276.503 5.95469 277.006 7.33703C277.509 8.6981 277.761 10.0804 277.761 11.4841C277.761 13.0153 277.488 14.472 276.943 15.8544C276.419 17.2367 275.686 18.4595 274.742 19.5229C273.82 20.565 272.72 21.405 271.441 22.043C270.163 22.6597 268.779 22.9681 267.291 22.9681ZM258.456 11.4841C258.456 12.7813 258.666 14.0361 259.085 15.2483C259.525 16.4392 260.133 17.5025 260.909 18.4383C261.705 19.3528 262.648 20.0865 263.738 20.6394C264.828 21.1923 266.023 21.4688 267.323 21.4688C268.664 21.4688 269.869 21.1817 270.938 20.6075C272.028 20.0333 272.95 19.2783 273.705 18.3426C274.48 17.3856 275.078 16.3116 275.497 15.1207C275.916 13.9297 276.126 12.7175 276.126 11.4841C276.126 10.1868 275.906 8.94267 275.466 7.75173C275.025 6.53953 274.407 5.47619 273.611 4.56172C272.835 3.62598 271.913 2.88165 270.844 2.32871C269.775 1.77577 268.601 1.49931 267.323 1.49931C265.981 1.49931 264.765 1.78641 263.675 2.36061C262.585 2.93481 261.653 3.70042 260.877 4.65742C260.102 5.59316 259.504 6.6565 259.085 7.84743C258.666 9.03837 258.456 10.2506 258.456 11.4841Z" fill="#5F5F5F"/>
<path d="M282.066 22.8086V0.159501H283.669V21.3412H297V22.8086H282.066Z" fill="#5F5F5F"/>
</svg>
