<svg width="67" height="62" viewBox="0 0 67 62" fill="none" xmlns="http://www.w3.org/2000/svg">
<path fill-rule="evenodd" clip-rule="evenodd" d="M33.6215 0.335825C40.6849 1.2331 45.9057 6.24658 51.3461 10.9311C57.5981 16.3145 66.1752 20.7093 66.9359 29.0217C67.7249 37.6437 61.0886 44.811 54.9982 50.8399C49.0257 56.7522 41.9418 61.9953 33.6215 62C25.2976 62.0047 18.2217 56.7521 12.2211 50.8642C6.06621 44.825 0.275141 37.7316 0.0117014 29.0217C-0.257911 20.1077 4.15468 11.5087 10.8577 5.78773C17.0733 0.482729 25.5811 -0.685574 33.6215 0.335825Z" fill="#216CFF"/>
<path fill-rule="evenodd" clip-rule="evenodd" d="M33.6215 0.335825C40.6849 1.2331 45.9057 6.24658 51.3461 10.9311C57.5981 16.3145 66.1752 20.7093 66.9359 29.0217C67.7249 37.6437 61.0886 44.811 54.9982 50.8399C49.0257 56.7522 41.9418 61.9953 33.6215 62C25.2976 62.0047 18.2217 56.7521 12.2211 50.8642C6.06621 44.825 0.275141 37.7316 0.0117014 29.0217C-0.257911 20.1077 4.15468 11.5087 10.8577 5.78773C17.0733 0.482729 25.5811 -0.685574 33.6215 0.335825Z" fill="url(#paint0_linear)"/>
<defs>
<linearGradient id="paint0_linear" x1="0" y1="62" x2="-1.56394e-07" y2="0" gradientUnits="userSpaceOnUse">
<stop stop-color="#EB9413"/>
<stop offset="1" stop-color="#FFE600"/>
</linearGradient>
</defs>
</svg>
