<svg width="29" height="24" viewBox="0 0 29 24" fill="none" xmlns="http://www.w3.org/2000/svg">
<path d="M10.7116 10.9678C9.68761 12.0772 8.25828 12.6318 6.42361 12.6318C4.58894 12.6318 3.15961 12.0772 2.13561 10.9678C1.11161 9.85849 0.599609 8.31182 0.599609 6.32782C0.599609 4.40782 1.11161 2.91449 2.13561 1.84782C3.15961 0.75982 4.58894 0.21582 6.42361 0.21582C8.25828 0.21582 9.68761 0.75982 10.7116 1.84782C11.7569 2.91449 12.2796 4.40782 12.2796 6.32782C12.2796 8.31182 11.7569 9.85849 10.7116 10.9678ZM6.07161 22.9998L18.7116 0.599819H22.7436L10.1356 22.9998H6.07161ZM6.42361 9.49582C7.72494 9.49582 8.37561 8.43982 8.37561 6.32782C8.37561 4.34382 7.72494 3.35182 6.42361 3.35182C5.14361 3.35182 4.50361 4.34382 4.50361 6.32782C4.50361 8.43982 5.14361 9.49582 6.42361 9.49582ZM26.8396 21.6878C25.8156 22.7972 24.3863 23.3518 22.5516 23.3518C20.7169 23.3518 19.2876 22.7972 18.2636 21.6878C17.2396 20.5785 16.7276 19.0318 16.7276 17.0478C16.7276 15.1278 17.2396 13.6345 18.2636 12.5678C19.2876 11.4798 20.7169 10.9358 22.5516 10.9358C24.3863 10.9358 25.8156 11.4798 26.8396 12.5678C27.8849 13.6345 28.4076 15.1278 28.4076 17.0478C28.4076 19.0318 27.8849 20.5785 26.8396 21.6878ZM22.5516 20.2158C23.8529 20.2158 24.5036 19.1598 24.5036 17.0478C24.5036 15.0638 23.8529 14.0718 22.5516 14.0718C21.2716 14.0718 20.6316 15.0638 20.6316 17.0478C20.6316 19.1598 21.2716 20.2158 22.5516 20.2158Z" fill="black"/>
</svg>
