<svg width="30" height="30" viewBox="0 0 30 30" fill="none" xmlns="http://www.w3.org/2000/svg">
<rect width="30" height="30" rx="5" fill="url(#paint0_linear)"/>
<path d="M8.9 22.3L17.7 8.3H20.2L11.4 22.3H8.9ZM17.7 20.3C17.9667 20.5667 18.3 20.7 18.7 20.7C19.1 20.7 19.4333 20.5667 19.7 20.3C19.9667 20.0333 20.1 19.7 20.1 19.3C20.1 18.9 19.9667 18.5667 19.7 18.3C19.4333 18.0333 19.1 17.9 18.7 17.9C18.3 17.9 17.9667 18.0333 17.7 18.3C17.4333 18.5667 17.3 18.9 17.3 19.3C17.3 19.7 17.4333 20.0333 17.7 20.3ZM16.28 21.64C15.6267 21 15.3 20.22 15.3 19.3C15.3 18.38 15.6267 17.6 16.28 16.96C16.9333 16.32 17.74 16 18.7 16C19.66 16 20.4667 16.32 21.12 16.96C21.7733 17.6 22.1 18.38 22.1 19.3C22.1 20.22 21.7733 21 21.12 21.64C20.4667 22.28 19.66 22.6 18.7 22.6C17.74 22.6 16.9333 22.28 16.28 21.64ZM9.4 10.3C9.13333 10.5667 9 10.9 9 11.3C9 11.7 9.13333 12.0333 9.4 12.3C9.66667 12.5667 10 12.7 10.4 12.7C10.8 12.7 11.1333 12.5667 11.4 12.3C11.6667 12.0333 11.8 11.7 11.8 11.3C11.8 10.9 11.6667 10.5667 11.4 10.3C11.1333 10.0333 10.8 9.9 10.4 9.9C10 9.9 9.66667 10.0333 9.4 10.3ZM7.98 13.64C7.32667 13 7 12.22 7 11.3C7 10.38 7.32667 9.6 7.98 8.96C8.63333 8.32 9.44 8 10.4 8C11.36 8 12.1667 8.32 12.82 8.96C13.4733 9.6 13.8 10.38 13.8 11.3C13.8 12.22 13.4733 13 12.82 13.64C12.1667 14.28 11.36 14.6 10.4 14.6C9.44 14.6 8.63333 14.28 7.98 13.64Z" fill="black"/>
<defs>
<linearGradient id="paint0_linear" x1="0" y1="30" x2="-8.17775e-08" y2="0" gradientUnits="userSpaceOnUse">
<stop stop-color="#EB9413"/>
<stop offset="1" stop-color="#FFE600"/>
</linearGradient>
</defs>
</svg>
