<svg width="80" height="80" viewBox="0 0 80 80" fill="none" xmlns="http://www.w3.org/2000/svg">
<path fill-rule="evenodd" clip-rule="evenodd" d="M41.4104 0.000480094C53.1947 0.0737466 62.8892 8.54094 70.0975 18.2792C77.1443 27.7992 81.8191 39.4666 79.3185 51.2135C76.8026 63.0319 68.1669 72.3245 57.5556 77.1952C47.3978 81.8578 36.1574 80.2527 25.9498 75.7103C14.9673 70.823 3.54279 63.992 0.68169 51.8859C-2.22045 39.6062 4.61417 27.7006 12.2919 17.9198C19.8069 8.34623 29.5583 -0.0732075 41.4104 0.000480094Z" fill="#C4C4C4"/>
<path fill-rule="evenodd" clip-rule="evenodd" d="M41.4104 0.000480094C53.1947 0.0737466 62.8892 8.54094 70.0975 18.2792C77.1443 27.7992 81.8191 39.4666 79.3185 51.2135C76.8026 63.0319 68.1669 72.3245 57.5556 77.1952C47.3978 81.8578 36.1574 80.2527 25.9498 75.7103C14.9673 70.823 3.54279 63.992 0.68169 51.8859C-2.22045 39.6062 4.61417 27.7006 12.2919 17.9198C19.8069 8.34623 29.5583 -0.0732075 41.4104 0.000480094Z" fill="url(#paint0_linear)"/>
<defs>
<linearGradient id="paint0_linear" x1="19.1066" y1="0" x2="19.1065" y2="80" gradientUnits="userSpaceOnUse">
<stop stop-color="#A22CEA"/>
<stop offset="1" stop-color="#7000FF"/>
</linearGradient>
</defs>
</svg>
