<svg width="80" height="80" viewBox="0 0 80 80" fill="none" xmlns="http://www.w3.org/2000/svg">
<path fill-rule="evenodd" clip-rule="evenodd" d="M40.3727 0.00502034C53.01 0.14152 66.0171 3.45915 73.7616 13.1176C81.4016 22.6459 80.8721 35.4407 78.2351 47.2252C75.5496 59.226 70.8147 71.7028 59.4338 77.1456C47.9461 82.6394 34.3405 79.5129 23.0748 73.605C12.5313 68.0759 5.5353 58.446 2.41783 47.2457C-0.884434 35.3814 -1.75974 22.0883 6.03533 12.3861C13.9206 2.57168 27.5217 -0.133788 40.3727 0.00502034Z" fill="#C4C4C4"/>
<path fill-rule="evenodd" clip-rule="evenodd" d="M40.3727 0.00502034C53.01 0.14152 66.0171 3.45915 73.7616 13.1176C81.4016 22.6459 80.8721 35.4407 78.2351 47.2252C75.5496 59.226 70.8147 71.7028 59.4338 77.1456C47.9461 82.6394 34.3405 79.5129 23.0748 73.605C12.5313 68.0759 5.5353 58.446 2.41783 47.2457C-0.884434 35.3814 -1.75974 22.0883 6.03533 12.3861C13.9206 2.57168 27.5217 -0.133788 40.3727 0.00502034Z" fill="url(#paint0_linear)"/>
<defs>
<linearGradient id="paint0_linear" x1="19.1066" y1="0" x2="19.1065" y2="80" gradientUnits="userSpaceOnUse">
<stop stop-color="#A22CEA"/>
<stop offset="1" stop-color="#7000FF"/>
</linearGradient>
</defs>
</svg>
