<svg width="80" height="80" viewBox="0 0 80 80" fill="none" xmlns="http://www.w3.org/2000/svg">
<path fill-rule="evenodd" clip-rule="evenodd" d="M36.2584 0.00131095C48.5398 0.117761 57.802 8.89317 65.632 17.6498C73.7101 26.684 81.9009 36.9502 79.6091 48.4828C77.2299 60.4548 66.224 68.853 54.3975 74.1824C42.4945 79.5463 28.3352 82.7426 16.7529 76.8078C5.67965 71.1339 2.99155 58.3448 0.933933 46.7876C-0.919647 36.3764 -0.410409 25.735 6.12014 17.0855C13.2191 7.68312 23.8642 -0.116208 36.2584 0.00131095Z" fill="#C4C4C4"/>
<path fill-rule="evenodd" clip-rule="evenodd" d="M36.2584 0.00131095C48.5398 0.117761 57.802 8.89317 65.632 17.6498C73.7101 26.684 81.9009 36.9502 79.6091 48.4828C77.2299 60.4548 66.224 68.853 54.3975 74.1824C42.4945 79.5463 28.3352 82.7426 16.7529 76.8078C5.67965 71.1339 2.99155 58.3448 0.933933 46.7876C-0.919647 36.3764 -0.410409 25.735 6.12014 17.0855C13.2191 7.68312 23.8642 -0.116208 36.2584 0.00131095Z" fill="url(#paint0_linear)"/>
<defs>
<linearGradient id="paint0_linear" x1="19.1066" y1="0" x2="19.1065" y2="80" gradientUnits="userSpaceOnUse">
<stop stop-color="#A22CEA"/>
<stop offset="1" stop-color="#7000FF"/>
</linearGradient>
</defs>
</svg>
