<svg width="1281" height="223" viewBox="0 0 1281 223" fill="none" xmlns="http://www.w3.org/2000/svg">
<path fill-rule="evenodd" clip-rule="evenodd" d="M384.782 10.0597C410.784 11.0497 431.885 27.5493 447.36 46.8517C462.02 65.1387 469.156 87.3453 464.671 109.711C459.928 133.365 446.744 156.144 423.324 166.721C399.749 177.369 371.771 173.568 348.646 162.114C326.792 151.289 313.367 131.39 307.234 109.218C300.86 86.176 300.292 61.1114 315.374 41.8263C331.272 21.4977 357.633 9.02596 384.782 10.0597Z" fill="white"/>
<path d="M90.0867 112.312C81.7776 102.928 70.2802 98.4269 58.1069 98.0442C45.3644 97.6437 31.7173 99.8272 23.642 110.224C15.4722 120.741 16.1338 135.347 18.8021 148.646C21.5402 162.293 26.3733 176.498 38.1969 182.765C48.2633 188.1 59.7134 186.151 70.3333 181.863C77.1454 179.094 92.9924 170.356 101.885 157.556C103.009 155.32 103.868 152.917 104.4 150.327C107.277 136.308 99.3716 122.798 90.0867 112.312Z" fill="white"/>
<path fill-rule="evenodd" clip-rule="evenodd" d="M805.809 55.1683C826.82 53.8638 847.964 60.0582 862.488 76.6787C878.736 95.2712 889.519 120.518 884.941 145.72C880.23 171.656 862.063 192.678 839.612 202.614C818.715 211.862 795.847 205.284 775.797 194.024C756.546 183.212 738.741 166.934 734.733 143.714C730.865 121.3 742.907 100.404 756.678 83.248C769.494 67.2814 786.391 56.3739 805.809 55.1683Z" fill="white"/>
<path fill-rule="evenodd" clip-rule="evenodd" d="M1137.64 15.0304C1150.88 15.5345 1161.63 23.9362 1169.51 33.765C1176.97 43.0768 1180.61 54.3844 1178.32 65.773C1175.91 77.8179 1169.19 89.4167 1157.27 94.8029C1145.27 100.225 1131.02 98.2894 1119.24 92.4567C1108.12 86.9446 1101.28 76.8123 1098.16 65.5221C1094.91 53.789 1094.62 41.0261 1102.3 31.206C1110.4 20.8547 1123.82 14.504 1137.64 15.0304Z" fill="white"/>
<path d="M0 111.5C0 86.371 20.371 66 45.5 66H107V157H45.5C20.371 157 0 136.629 0 111.5Z" fill="#C4C4C4"/>
<path d="M0 111.5C0 86.371 20.371 66 45.5 66H107V157H45.5C20.371 157 0 136.629 0 111.5Z" fill="url(#paint0_linear)"/>
<rect x="107" y="66" width="320" height="91" fill="#A4A4A4"/>
<rect x="107" y="66" width="320" height="91" fill="#216CFF"/>
<path fill-rule="evenodd" clip-rule="evenodd" d="M427 72.804V66H107V153.243C130.085 145.102 151.748 130.905 173.671 116.536L173.673 116.535C199.574 99.5606 225.839 82.3474 255.245 74.5994C286.424 66.3842 320.628 69.0203 354.239 71.6107C379.324 73.5441 404.079 75.452 427 72.804Z" fill="#216CFF"/>
<path fill-rule="evenodd" clip-rule="evenodd" d="M427 72.804V66H107V153.243C130.085 145.102 151.748 130.905 173.671 116.536L173.673 116.535C199.574 99.5606 225.839 82.3474 255.245 74.5994C286.424 66.3842 320.628 69.0203 354.239 71.6107C379.324 73.5441 404.079 75.452 427 72.804Z" fill="url(#paint1_linear)"/>
<rect x="427" y="66" width="640" height="91" fill="#828282"/>
<rect x="427" y="66" width="640" height="91" fill="url(#paint2_linear)"/>
<path d="M1067 66H1234.83C1259.96 66 1280.33 86.371 1280.33 111.5C1280.33 136.629 1259.96 157 1234.83 157H1067V66Z" fill="#A4A4A4"/>
<path d="M1067 66H1234.83C1259.96 66 1280.33 86.371 1280.33 111.5C1280.33 136.629 1259.96 157 1234.83 157H1067V66Z" fill="#216CFF"/>
<path d="M717.2 118.1L719.2 116.1C719.44 116.38 719.713 116.633 720.02 116.86C720.727 117.353 721.453 117.6 722.2 117.6C722.96 117.6 723.547 117.44 723.96 117.12C724.387 116.787 724.6 116.38 724.6 115.9C724.6 115.42 724.4 115.02 724 114.7C723.613 114.367 723.08 114.2 722.4 114.2H720.8V111.6H722.2C722.787 111.6 723.247 111.453 723.58 111.16C723.927 110.853 724.1 110.467 724.1 110C724.1 109.533 723.927 109.153 723.58 108.86C723.247 108.553 722.787 108.4 722.2 108.4C721.613 108.4 721.007 108.633 720.38 109.1C720.113 109.327 719.887 109.56 719.7 109.8L717.7 107.8C718.073 107.387 718.473 107.04 718.9 106.76C719.953 106.053 721.153 105.7 722.5 105.7C723.86 105.7 724.98 106.093 725.86 106.88C726.753 107.653 727.2 108.56 727.2 109.6C727.2 110.547 726.833 111.333 726.1 111.96C725.74 112.24 725.373 112.453 725 112.6C725.507 112.787 725.953 113.033 726.34 113.34C727.247 114.033 727.7 114.953 727.7 116.1C727.7 117.233 727.22 118.22 726.26 119.06C725.3 119.887 724.047 120.3 722.5 120.3C721.007 120.3 719.687 119.933 718.54 119.2C718.02 118.88 717.573 118.513 717.2 118.1ZM739.413 120V116.8C739.226 116.92 739.019 117.02 738.793 117.1C738.286 117.3 737.726 117.4 737.113 117.4C736.006 117.4 735.113 117.047 734.433 116.34C733.753 115.633 733.413 114.687 733.413 113.5V110.2H736.113V113.3C736.113 113.807 736.253 114.2 736.533 114.48C736.813 114.76 737.206 114.9 737.713 114.9C738.206 114.9 738.626 114.82 738.973 114.66C739.079 114.62 739.226 114.533 739.413 114.4V110.2H742.113V120H739.413ZM750.206 120V118.8H750.106C749.866 119.093 749.62 119.327 749.366 119.5C748.78 119.967 748.06 120.2 747.206 120.2C746.313 120.2 745.586 119.94 745.026 119.42C744.48 118.887 744.206 118.213 744.206 117.4C744.206 116.6 744.46 115.92 744.966 115.36C745.486 114.787 746.2 114.42 747.106 114.26L750.206 113.7C750.153 113.327 749.98 113.02 749.686 112.78C749.393 112.527 749 112.4 748.506 112.4C747.893 112.4 747.353 112.587 746.886 112.96C746.646 113.133 746.453 113.313 746.306 113.5L744.706 111.9C745 111.54 745.34 111.227 745.726 110.96C746.66 110.32 747.653 110 748.706 110C749.933 110 750.94 110.373 751.726 111.12C752.513 111.867 752.906 112.793 752.906 113.9V120H750.206ZM750.206 115.8V115.6L748.006 116C747.273 116.147 746.906 116.48 746.906 117C746.906 117.667 747.306 118 748.106 118C748.706 118 749.206 117.793 749.606 117.38C750.006 116.967 750.206 116.44 750.206 115.8ZM762.507 116.5L764.207 118.2C763.967 118.547 763.634 118.88 763.207 119.2C762.274 119.867 761.24 120.2 760.107 120.2C758.667 120.2 757.44 119.7 756.427 118.7C755.414 117.7 754.907 116.5 754.907 115.1C754.907 113.7 755.414 112.5 756.427 111.5C757.44 110.5 758.667 110 760.107 110C761.24 110 762.274 110.333 763.207 111C763.634 111.32 763.967 111.653 764.207 112L762.507 113.7C762.334 113.487 762.12 113.287 761.867 113.1C761.307 112.7 760.72 112.5 760.107 112.5C759.4 112.5 758.807 112.747 758.327 113.24C757.847 113.733 757.607 114.353 757.607 115.1C757.607 115.847 757.847 116.467 758.327 116.96C758.807 117.453 759.4 117.7 760.107 117.7C760.72 117.7 761.307 117.5 761.867 117.1C762.12 116.913 762.334 116.713 762.507 116.5ZM771.398 120V118.8H771.298C771.058 119.093 770.811 119.327 770.558 119.5C769.971 119.967 769.251 120.2 768.398 120.2C767.504 120.2 766.778 119.94 766.218 119.42C765.671 118.887 765.398 118.213 765.398 117.4C765.398 116.6 765.651 115.92 766.158 115.36C766.678 114.787 767.391 114.42 768.298 114.26L771.398 113.7C771.344 113.327 771.171 113.02 770.878 112.78C770.584 112.527 770.191 112.4 769.698 112.4C769.084 112.4 768.544 112.587 768.078 112.96C767.838 113.133 767.644 113.313 767.498 113.5L765.898 111.9C766.191 111.54 766.531 111.227 766.918 110.96C767.851 110.32 768.844 110 769.898 110C771.124 110 772.131 110.373 772.918 111.12C773.704 111.867 774.098 112.793 774.098 113.9V120H771.398ZM771.398 115.8V115.6L769.198 116C768.464 116.147 768.098 116.48 768.098 117C768.098 117.667 768.498 118 769.298 118C769.898 118 770.398 117.793 770.798 117.38C771.198 116.967 771.398 116.44 771.398 115.8Z" fill="white"/>
<path d="M657.1 22V8H667.9V22H666.4V9.4H658.6V22H657.1ZM671.6 26.2V12.4H673V13.8C673.227 13.4933 673.5 13.2267 673.82 13C674.54 12.4667 675.367 12.2 676.3 12.2C677.62 12.2 678.733 12.6733 679.64 13.62C680.547 14.5667 681 15.76 681 17.2C681 18.64 680.547 19.8333 679.64 20.78C678.733 21.7267 677.62 22.2 676.3 22.2C675.367 22.2 674.54 21.9333 673.82 21.4C673.5 21.1733 673.227 20.9067 673 20.6V26.2H671.6ZM676.3 20.9C677.22 20.9 678 20.5533 678.64 19.86C679.28 19.1667 679.6 18.28 679.6 17.2C679.6 16.12 679.28 15.2333 678.64 14.54C678 13.8467 677.22 13.5 676.3 13.5C675.433 13.5 674.667 13.86 674 14.58C673.333 15.3 673 16.1733 673 17.2C673 18.2267 673.333 19.1 674 19.82C674.667 20.54 675.433 20.9 676.3 20.9ZM689.295 22V20.7C689.095 20.98 688.841 21.2333 688.535 21.46C687.828 21.9533 687.048 22.2 686.195 22.2C685.221 22.2 684.408 21.92 683.755 21.36C683.115 20.7867 682.795 20.1333 682.795 19.4C682.795 17.7733 683.728 16.8067 685.595 16.5L689.295 15.9C689.295 15.1933 689.068 14.62 688.615 14.18C688.175 13.7267 687.601 13.5 686.895 13.5C686.201 13.5 685.541 13.7333 684.915 14.2C684.621 14.4533 684.381 14.6867 684.195 14.9L683.295 14C683.548 13.6667 683.861 13.3667 684.235 13.1C685.048 12.5 685.935 12.2 686.895 12.2C687.988 12.2 688.895 12.5533 689.615 13.26C690.335 13.9667 690.695 14.8467 690.695 15.9V22H689.295ZM689.295 17.7V17.1L685.995 17.7C684.795 17.9133 684.195 18.48 684.195 19.4C684.195 19.8267 684.368 20.1867 684.715 20.48C685.075 20.76 685.568 20.9 686.195 20.9C687.115 20.9 687.861 20.6067 688.435 20.02C689.008 19.4333 689.295 18.66 689.295 17.7ZM693.885 22V12.4H695.285V17.5L700.085 12.4H701.785L698.085 16.3L702.185 22H700.585L697.185 17.3L695.285 19.3V22H693.885ZM705.988 22V13.7H702.588V12.4H710.788V13.7H707.388V22H705.988ZM712.791 22V12.4H714.191V19.6L719.991 12.4H721.191V22H719.791V14.8L713.991 22H712.791ZM730.593 22V18.1C730.353 18.2467 730.1 18.38 729.833 18.5C729.246 18.7667 728.6 18.9 727.893 18.9C726.8 18.9 725.906 18.56 725.213 17.88C724.533 17.1867 724.193 16.2933 724.193 15.2V12.4H725.593V15.2C725.593 15.9067 725.813 16.4867 726.253 16.94C726.706 17.38 727.286 17.6 727.993 17.6C728.646 17.6 729.28 17.4533 729.893 17.16C730.16 17.0133 730.393 16.86 730.593 16.7V12.4H731.993V22H730.593ZM742.394 19.3L743.294 20.2C743.04 20.5467 742.7 20.88 742.274 21.2C741.34 21.8667 740.347 22.2 739.294 22.2C737.974 22.2 736.84 21.7133 735.894 20.74C734.96 19.7667 734.494 18.5867 734.494 17.2C734.494 15.8133 734.96 14.6333 735.894 13.66C736.827 12.6867 737.927 12.2 739.194 12.2C740.514 12.2 741.607 12.6533 742.474 13.56C743.354 14.4667 743.794 15.6133 743.794 17C743.794 17.0667 743.774 17.24 743.734 17.52L743.694 17.72L735.894 17.7C735.947 18.5667 736.3 19.32 736.954 19.96C737.62 20.5867 738.4 20.9 739.294 20.9C740.107 20.9 740.874 20.6333 741.594 20.1C741.94 19.82 742.207 19.5533 742.394 19.3ZM735.894 16.5H742.394C742.287 15.6333 741.934 14.92 741.334 14.36C740.747 13.7867 740.034 13.5 739.194 13.5C738.354 13.5 737.62 13.7933 736.994 14.38C736.367 14.9667 736 15.6733 735.894 16.5ZM753.388 19.3L754.388 20.2C754.121 20.5333 753.768 20.8667 753.328 21.2C752.394 21.8667 751.414 22.2 750.388 22.2C749.068 22.2 747.934 21.7133 746.988 20.74C746.054 19.7667 745.588 18.5867 745.588 17.2C745.588 15.8133 746.054 14.6333 746.988 13.66C747.934 12.6867 749.068 12.2 750.388 12.2C751.428 12.2 752.388 12.52 753.268 13.16C753.628 13.4267 753.968 13.74 754.288 14.1L753.288 15.1C753.074 14.8067 752.828 14.54 752.548 14.3C751.908 13.7667 751.188 13.5 750.388 13.5C749.468 13.5 748.668 13.86 747.988 14.58C747.321 15.2867 746.988 16.16 746.988 17.2C746.988 18.24 747.321 19.12 747.988 19.84C748.668 20.5467 749.468 20.9 750.388 20.9C751.148 20.9 751.888 20.6333 752.608 20.1C752.914 19.8467 753.174 19.58 753.388 19.3ZM756.58 22V12.4H757.98V17.5L762.78 12.4H764.48L760.78 16.3L764.88 22H763.28L759.88 17.3L757.98 19.3V22H756.58ZM772.283 22V20.7C772.083 20.98 771.829 21.2333 771.523 21.46C770.816 21.9533 770.036 22.2 769.183 22.2C768.209 22.2 767.396 21.92 766.743 21.36C766.103 20.7867 765.783 20.1333 765.783 19.4C765.783 17.7733 766.716 16.8067 768.583 16.5L772.283 15.9C772.283 15.1933 772.056 14.62 771.603 14.18C771.163 13.7267 770.589 13.5 769.883 13.5C769.189 13.5 768.529 13.7333 767.903 14.2C767.609 14.4533 767.369 14.6867 767.183 14.9L766.283 14C766.536 13.6667 766.849 13.3667 767.223 13.1C768.036 12.5 768.923 12.2 769.883 12.2C770.976 12.2 771.883 12.5533 772.603 13.26C773.323 13.9667 773.683 14.8467 773.683 15.9V22H772.283ZM772.283 17.7V17.1L768.983 17.7C767.783 17.9133 767.183 18.48 767.183 19.4C767.183 19.8267 767.356 20.1867 767.703 20.48C768.063 20.76 768.556 20.9 769.183 20.9C770.103 20.9 770.849 20.6067 771.423 20.02C771.996 19.4333 772.283 18.66 772.283 17.7ZM776.073 22L778.273 18.5C777.913 18.3933 777.58 18.2133 777.273 17.96C776.607 17.4 776.273 16.6133 776.273 15.6C776.273 14.68 776.593 13.92 777.233 13.32C777.887 12.7067 778.733 12.4 779.773 12.4H783.873V22H782.473V18.8H779.673L777.673 22H776.073ZM779.773 17.5H782.473V13.7H779.773C779.133 13.7 778.62 13.8733 778.233 14.22C777.86 14.5667 777.673 15.0267 777.673 15.6C777.673 16.1733 777.86 16.6333 778.233 16.98C778.62 17.3267 779.133 17.5 779.773 17.5ZM797.077 22V18.1C796.837 18.2467 796.584 18.38 796.317 18.5C795.731 18.7667 795.084 18.9 794.377 18.9C793.284 18.9 792.391 18.56 791.697 17.88C791.017 17.1867 790.677 16.2933 790.677 15.2V12.4H792.077V15.2C792.077 15.9067 792.297 16.4867 792.737 16.94C793.191 17.38 793.771 17.6 794.477 17.6C795.131 17.6 795.764 17.4533 796.377 17.16C796.644 17.0133 796.877 16.86 797.077 16.7V12.4H798.477V22H797.077ZM807.478 22V20.7C807.278 20.98 807.025 21.2333 806.718 21.46C806.011 21.9533 805.231 22.2 804.378 22.2C803.405 22.2 802.591 21.92 801.938 21.36C801.298 20.7867 800.978 20.1333 800.978 19.4C800.978 17.7733 801.911 16.8067 803.778 16.5L807.478 15.9C807.478 15.1933 807.251 14.62 806.798 14.18C806.358 13.7267 805.785 13.5 805.078 13.5C804.385 13.5 803.725 13.7333 803.098 14.2C802.805 14.4533 802.565 14.6867 802.378 14.9L801.478 14C801.731 13.6667 802.045 13.3667 802.418 13.1C803.231 12.5 804.118 12.2 805.078 12.2C806.171 12.2 807.078 12.5533 807.798 13.26C808.518 13.9667 808.878 14.8467 808.878 15.9V22H807.478ZM807.478 17.7V17.1L804.178 17.7C802.978 17.9133 802.378 18.48 802.378 19.4C802.378 19.8267 802.551 20.1867 802.898 20.48C803.258 20.76 803.751 20.9 804.378 20.9C805.298 20.9 806.045 20.6067 806.618 20.02C807.191 19.4333 807.478 18.66 807.478 17.7ZM819.169 19.3L820.169 20.2C819.902 20.5333 819.549 20.8667 819.109 21.2C818.175 21.8667 817.195 22.2 816.169 22.2C814.849 22.2 813.715 21.7133 812.769 20.74C811.835 19.7667 811.369 18.5867 811.369 17.2C811.369 15.8133 811.835 14.6333 812.769 13.66C813.715 12.6867 814.849 12.2 816.169 12.2C817.209 12.2 818.169 12.52 819.049 13.16C819.409 13.4267 819.749 13.74 820.069 14.1L819.069 15.1C818.855 14.8067 818.609 14.54 818.329 14.3C817.689 13.7667 816.969 13.5 816.169 13.5C815.249 13.5 814.449 13.86 813.769 14.58C813.102 15.2867 812.769 16.16 812.769 17.2C812.769 18.24 813.102 19.12 813.769 19.84C814.449 20.5467 815.249 20.9 816.169 20.9C816.929 20.9 817.669 20.6333 818.389 20.1C818.695 19.8467 818.955 19.58 819.169 19.3ZM824.562 22V13.7H821.162V12.4H829.362V13.7H825.962V22H824.562ZM831.366 22V12.4H832.766V15.6H835.266C836.359 15.6 837.212 15.8933 837.826 16.48C838.452 17.0533 838.766 17.8267 838.766 18.8C838.766 19.7733 838.452 20.5533 837.826 21.14C837.212 21.7133 836.366 22 835.286 22H831.366ZM832.766 20.7H835.286C835.926 20.7 836.432 20.5267 836.806 20.18C837.179 19.82 837.366 19.36 837.366 18.8C837.366 18.2267 837.172 17.7667 836.786 17.42C836.412 17.0733 835.906 16.9 835.266 16.9H832.766V20.7Z" fill="black"/>
<path d="M1154 120V109.8H1151.6V107.9C1152.53 107.78 1153.29 107.427 1153.88 106.84C1154.12 106.6 1154.33 106.32 1154.5 106H1157V120H1154ZM1169.7 120V116.8C1169.51 116.92 1169.31 117.02 1169.08 117.1C1168.57 117.3 1168.01 117.4 1167.4 117.4C1166.29 117.4 1165.4 117.047 1164.72 116.34C1164.04 115.633 1163.7 114.687 1163.7 113.5V110.2H1166.4V113.3C1166.4 113.807 1166.54 114.2 1166.82 114.48C1167.1 114.76 1167.49 114.9 1168 114.9C1168.49 114.9 1168.91 114.82 1169.26 114.66C1169.37 114.62 1169.51 114.533 1169.7 114.4V110.2H1172.4V120H1169.7ZM1180.5 120V118.8H1180.4C1180.16 119.093 1179.91 119.327 1179.66 119.5C1179.07 119.967 1178.35 120.2 1177.5 120.2C1176.6 120.2 1175.88 119.94 1175.32 119.42C1174.77 118.887 1174.5 118.213 1174.5 117.4C1174.5 116.6 1174.75 115.92 1175.26 115.36C1175.78 114.787 1176.49 114.42 1177.4 114.26L1180.5 113.7C1180.44 113.327 1180.27 113.02 1179.98 112.78C1179.68 112.527 1179.29 112.4 1178.8 112.4C1178.18 112.4 1177.64 112.587 1177.18 112.96C1176.94 113.133 1176.74 113.313 1176.6 113.5L1175 111.9C1175.29 111.54 1175.63 111.227 1176.02 110.96C1176.95 110.32 1177.94 110 1179 110C1180.22 110 1181.23 110.373 1182.02 111.12C1182.8 111.867 1183.2 112.793 1183.2 113.9V120H1180.5ZM1180.5 115.8V115.6L1178.3 116C1177.56 116.147 1177.2 116.48 1177.2 117C1177.2 117.667 1177.6 118 1178.4 118C1179 118 1179.5 117.793 1179.9 117.38C1180.3 116.967 1180.5 116.44 1180.5 115.8ZM1192.8 116.5L1194.5 118.2C1194.26 118.547 1193.92 118.88 1193.5 119.2C1192.56 119.867 1191.53 120.2 1190.4 120.2C1188.96 120.2 1187.73 119.7 1186.72 118.7C1185.7 117.7 1185.2 116.5 1185.2 115.1C1185.2 113.7 1185.7 112.5 1186.72 111.5C1187.73 110.5 1188.96 110 1190.4 110C1191.53 110 1192.56 110.333 1193.5 111C1193.92 111.32 1194.26 111.653 1194.5 112L1192.8 113.7C1192.62 113.487 1192.41 113.287 1192.16 113.1C1191.6 112.7 1191.01 112.5 1190.4 112.5C1189.69 112.5 1189.1 112.747 1188.62 113.24C1188.14 113.733 1187.9 114.353 1187.9 115.1C1187.9 115.847 1188.14 116.467 1188.62 116.96C1189.1 117.453 1189.69 117.7 1190.4 117.7C1191.01 117.7 1191.6 117.5 1192.16 117.1C1192.41 116.913 1192.62 116.713 1192.8 116.5Z" fill="white"/>
<path d="M1127.1 215V201H1132.4C1133.69 201 1134.77 201.42 1135.62 202.26C1136.47 203.1 1136.9 204.147 1136.9 205.4C1136.9 206.653 1136.47 207.7 1135.62 208.54C1134.77 209.38 1133.69 209.8 1132.4 209.8H1128.6V215H1127.1ZM1128.6 208.4H1132.4C1133.31 208.4 1134.03 208.127 1134.58 207.58C1135.13 207.033 1135.4 206.307 1135.4 205.4C1135.4 204.493 1135.13 203.767 1134.58 203.22C1134.03 202.673 1133.31 202.4 1132.4 202.4H1128.6V208.4ZM1144.8 215V213.7C1144.6 213.98 1144.35 214.233 1144.04 214.46C1143.34 214.953 1142.56 215.2 1141.7 215.2C1140.73 215.2 1139.92 214.92 1139.26 214.36C1138.62 213.787 1138.3 213.133 1138.3 212.4C1138.3 210.773 1139.24 209.807 1141.1 209.5L1144.8 208.9C1144.8 208.193 1144.58 207.62 1144.12 207.18C1143.68 206.727 1143.11 206.5 1142.4 206.5C1141.71 206.5 1141.05 206.733 1140.42 207.2C1140.13 207.453 1139.89 207.687 1139.7 207.9L1138.8 207C1139.06 206.667 1139.37 206.367 1139.74 206.1C1140.56 205.5 1141.44 205.2 1142.4 205.2C1143.5 205.2 1144.4 205.553 1145.12 206.26C1145.84 206.967 1146.2 207.847 1146.2 208.9V215H1144.8ZM1144.8 210.7V210.1L1141.5 210.7C1140.3 210.913 1139.7 211.48 1139.7 212.4C1139.7 212.827 1139.88 213.187 1140.22 213.48C1140.58 213.76 1141.08 213.9 1141.7 213.9C1142.62 213.9 1143.37 213.607 1143.94 213.02C1144.52 212.433 1144.8 211.66 1144.8 210.7ZM1148.29 213.5L1149.19 212.6C1149.41 212.867 1149.65 213.087 1149.91 213.26C1150.53 213.687 1151.19 213.9 1151.89 213.9C1152.65 213.9 1153.23 213.753 1153.61 213.46C1154 213.167 1154.19 212.78 1154.19 212.3C1154.19 211.82 1154 211.433 1153.61 211.14C1153.23 210.847 1152.65 210.7 1151.89 210.7H1150.79V209.4H1151.89C1152.47 209.4 1152.93 209.253 1153.27 208.96C1153.62 208.667 1153.79 208.313 1153.79 207.9C1153.79 207.487 1153.63 207.153 1153.31 206.9C1152.99 206.633 1152.52 206.5 1151.89 206.5C1151.24 206.5 1150.65 206.687 1150.13 207.06C1149.88 207.233 1149.67 207.413 1149.49 207.6L1148.49 206.6C1148.69 206.387 1148.99 206.153 1149.37 205.9C1150.17 205.433 1151.01 205.2 1151.89 205.2C1152.85 205.2 1153.64 205.473 1154.25 206.02C1154.88 206.553 1155.19 207.18 1155.19 207.9C1155.19 208.633 1154.94 209.2 1154.43 209.6C1154.21 209.787 1153.96 209.92 1153.69 210C1154.03 210.08 1154.34 210.213 1154.63 210.4C1155.27 210.827 1155.59 211.46 1155.59 212.3C1155.59 213.1 1155.27 213.787 1154.61 214.36C1153.97 214.92 1153.07 215.2 1151.89 215.2C1150.92 215.2 1150.02 214.92 1149.19 214.36C1148.85 214.107 1148.55 213.82 1148.29 213.5ZM1166 200.4L1166.7 201.5C1166.53 201.647 1166.27 201.787 1165.92 201.92C1165.16 202.253 1164.15 202.547 1162.9 202.8C1161.83 203.027 1160.98 203.533 1160.34 204.32C1159.7 205.093 1159.35 206.153 1159.3 207.5C1159.53 207.14 1159.81 206.827 1160.14 206.56C1160.89 205.92 1161.74 205.6 1162.7 205.6C1163.95 205.6 1165.03 206.067 1165.94 207C1166.85 207.933 1167.3 209.067 1167.3 210.4C1167.3 211.747 1166.84 212.887 1165.92 213.82C1165.01 214.74 1163.91 215.2 1162.6 215.2C1161.19 215.2 1160.03 214.66 1159.14 213.58C1158.25 212.5 1157.8 210.973 1157.8 209C1157.8 206.68 1158.24 204.913 1159.12 203.7C1160 202.487 1161.19 201.753 1162.7 201.5C1163.7 201.313 1164.55 201.08 1165.24 200.8C1165.61 200.627 1165.87 200.493 1166 200.4ZM1160.26 212.9C1160.9 213.567 1161.68 213.9 1162.6 213.9C1163.52 213.9 1164.3 213.567 1164.94 212.9C1165.58 212.22 1165.9 211.387 1165.9 210.4C1165.9 209.413 1165.58 208.587 1164.94 207.92C1164.3 207.24 1163.52 206.9 1162.6 206.9C1161.68 206.9 1160.9 207.24 1160.26 207.92C1159.62 208.587 1159.3 209.413 1159.3 210.4C1159.3 211.387 1159.62 212.22 1160.26 212.9ZM1177.56 213.76C1176.61 214.72 1175.46 215.2 1174.1 215.2C1172.74 215.2 1171.58 214.72 1170.62 213.76C1169.67 212.787 1169.2 211.6 1169.2 210.2C1169.2 208.8 1169.67 207.62 1170.62 206.66C1171.58 205.687 1172.74 205.2 1174.1 205.2C1175.46 205.2 1176.61 205.687 1177.56 206.66C1178.52 207.62 1179 208.8 1179 210.2C1179 211.6 1178.52 212.787 1177.56 213.76ZM1171.62 212.82C1172.31 213.54 1173.14 213.9 1174.1 213.9C1175.06 213.9 1175.88 213.547 1176.56 212.84C1177.25 212.12 1177.6 211.24 1177.6 210.2C1177.6 209.16 1177.25 208.287 1176.56 207.58C1175.88 206.86 1175.06 206.5 1174.1 206.5C1173.14 206.5 1172.31 206.86 1171.62 207.58C1170.94 208.287 1170.6 209.16 1170.6 210.2C1170.6 211.227 1170.94 212.1 1171.62 212.82ZM1181.5 219.2V205.4H1182.9V206.8C1183.13 206.493 1183.4 206.227 1183.72 206C1184.44 205.467 1185.27 205.2 1186.2 205.2C1187.52 205.2 1188.64 205.673 1189.54 206.62C1190.45 207.567 1190.9 208.76 1190.9 210.2C1190.9 211.64 1190.45 212.833 1189.54 213.78C1188.64 214.727 1187.52 215.2 1186.2 215.2C1185.27 215.2 1184.44 214.933 1183.72 214.4C1183.4 214.173 1183.13 213.907 1182.9 213.6V219.2H1181.5ZM1186.2 213.9C1187.12 213.9 1187.9 213.553 1188.54 212.86C1189.18 212.167 1189.5 211.28 1189.5 210.2C1189.5 209.12 1189.18 208.233 1188.54 207.54C1187.9 206.847 1187.12 206.5 1186.2 206.5C1185.34 206.5 1184.57 206.86 1183.9 207.58C1183.24 208.3 1182.9 209.173 1182.9 210.2C1182.9 211.227 1183.24 212.1 1183.9 212.82C1184.57 213.54 1185.34 213.9 1186.2 213.9ZM1196 218V213.6H1196.8C1197.28 213.107 1197.69 212.48 1198.04 211.72C1198.88 209.907 1199.3 207.733 1199.3 205.2V201H1207.9V213.6H1209.6V218H1208.1V215H1197.5V218H1196ZM1198.4 213.6H1206.4V202.4H1200.8V205.2C1200.8 207.76 1200.4 209.92 1199.6 211.68C1199.25 212.453 1198.85 213.093 1198.4 213.6ZM1210.8 213L1211.8 212C1212.08 212.347 1212.42 212.647 1212.82 212.9C1213.72 213.5 1214.72 213.8 1215.8 213.8C1216.9 213.8 1217.78 213.533 1218.42 213C1219.07 212.467 1219.4 211.833 1219.4 211.1C1219.4 210.313 1219.07 209.653 1218.42 209.12C1217.78 208.573 1216.9 208.3 1215.8 208.3H1214.2V206.9H1215.8C1216.76 206.9 1217.51 206.68 1218.06 206.24C1218.62 205.787 1218.9 205.24 1218.9 204.6C1218.9 203.92 1218.62 203.353 1218.06 202.9C1217.51 202.433 1216.76 202.2 1215.8 202.2C1214.9 202.2 1214.04 202.467 1213.22 203C1212.83 203.28 1212.52 203.547 1212.3 203.8L1211.3 202.8C1211.62 202.44 1212 202.107 1212.46 201.8C1213.5 201.133 1214.61 200.8 1215.8 200.8C1217.2 200.8 1218.31 201.16 1219.14 201.88C1219.98 202.587 1220.4 203.46 1220.4 204.5C1220.4 205.527 1220 206.347 1219.2 206.96C1218.85 207.253 1218.45 207.467 1218 207.6C1218.52 207.76 1219 207.993 1219.44 208.3C1220.41 209.033 1220.9 209.967 1220.9 211.1C1220.9 212.193 1220.42 213.153 1219.46 213.98C1218.51 214.793 1217.29 215.2 1215.8 215.2C1214.42 215.2 1213.18 214.833 1212.06 214.1C1211.55 213.767 1211.13 213.4 1210.8 213Z" fill="black"/>
<path d="M234 120V109.8H231.6V107.9C232.533 107.78 233.293 107.427 233.88 106.84C234.12 106.6 234.327 106.32 234.5 106H237V120H234ZM238.493 121.7L240.593 117L242.893 118.3L240.093 122.6L238.493 121.7ZM244.298 118.1L246.298 116.1C246.538 116.38 246.811 116.633 247.118 116.86C247.824 117.353 248.551 117.6 249.298 117.6C250.084 117.6 250.698 117.407 251.138 117.02C251.578 116.62 251.798 116.113 251.798 115.5C251.798 114.887 251.584 114.387 251.158 114C250.731 113.6 250.144 113.4 249.398 113.4C248.718 113.4 248.144 113.587 247.678 113.96C247.438 114.133 247.244 114.313 247.098 114.5L244.998 114.2L245.498 106H253.998V108.8H248.098L247.998 111.3C248.131 111.207 248.311 111.127 248.538 111.06C248.964 110.887 249.451 110.8 249.998 110.8C251.438 110.8 252.611 111.24 253.518 112.12C254.438 113 254.898 114.127 254.898 115.5C254.898 116.873 254.404 118.02 253.418 118.94C252.444 119.847 251.171 120.3 249.598 120.3C248.104 120.3 246.784 119.933 245.638 119.2C245.118 118.88 244.671 118.513 244.298 118.1ZM266.616 120V116.8C266.429 116.92 266.222 117.02 265.996 117.1C265.489 117.3 264.929 117.4 264.316 117.4C263.209 117.4 262.316 117.047 261.636 116.34C260.956 115.633 260.616 114.687 260.616 113.5V110.2H263.316V113.3C263.316 113.807 263.456 114.2 263.736 114.48C264.016 114.76 264.409 114.9 264.916 114.9C265.409 114.9 265.829 114.82 266.176 114.66C266.282 114.62 266.429 114.533 266.616 114.4V110.2H269.316V120H266.616ZM277.409 120V118.8H277.309C277.069 119.093 276.823 119.327 276.569 119.5C275.983 119.967 275.263 120.2 274.409 120.2C273.516 120.2 272.789 119.94 272.229 119.42C271.683 118.887 271.409 118.213 271.409 117.4C271.409 116.6 271.663 115.92 272.169 115.36C272.689 114.787 273.403 114.42 274.309 114.26L277.409 113.7C277.356 113.327 277.183 113.02 276.889 112.78C276.596 112.527 276.203 112.4 275.709 112.4C275.096 112.4 274.556 112.587 274.089 112.96C273.849 113.133 273.656 113.313 273.509 113.5L271.909 111.9C272.203 111.54 272.543 111.227 272.929 110.96C273.863 110.32 274.856 110 275.909 110C277.136 110 278.143 110.373 278.929 111.12C279.716 111.867 280.109 112.793 280.109 113.9V120H277.409ZM277.409 115.8V115.6L275.209 116C274.476 116.147 274.109 116.48 274.109 117C274.109 117.667 274.509 118 275.309 118C275.909 118 276.409 117.793 276.809 117.38C277.209 116.967 277.409 116.44 277.409 115.8ZM289.71 116.5L291.41 118.2C291.17 118.547 290.837 118.88 290.41 119.2C289.477 119.867 288.443 120.2 287.31 120.2C285.87 120.2 284.643 119.7 283.63 118.7C282.617 117.7 282.11 116.5 282.11 115.1C282.11 113.7 282.617 112.5 283.63 111.5C284.643 110.5 285.87 110 287.31 110C288.443 110 289.477 110.333 290.41 111C290.837 111.32 291.17 111.653 291.41 112L289.71 113.7C289.537 113.487 289.323 113.287 289.07 113.1C288.51 112.7 287.923 112.5 287.31 112.5C286.603 112.5 286.01 112.747 285.53 113.24C285.05 113.733 284.81 114.353 284.81 115.1C284.81 115.847 285.05 116.467 285.53 116.96C286.01 117.453 286.603 117.7 287.31 117.7C287.923 117.7 288.51 117.5 289.07 117.1C289.323 116.913 289.537 116.713 289.71 116.5ZM298.601 120V118.8H298.501C298.261 119.093 298.014 119.327 297.761 119.5C297.174 119.967 296.454 120.2 295.601 120.2C294.707 120.2 293.981 119.94 293.421 119.42C292.874 118.887 292.601 118.213 292.601 117.4C292.601 116.6 292.854 115.92 293.361 115.36C293.881 114.787 294.594 114.42 295.501 114.26L298.601 113.7C298.547 113.327 298.374 113.02 298.081 112.78C297.787 112.527 297.394 112.4 296.901 112.4C296.287 112.4 295.747 112.587 295.281 112.96C295.041 113.133 294.847 113.313 294.701 113.5L293.101 111.9C293.394 111.54 293.734 111.227 294.121 110.96C295.054 110.32 296.047 110 297.101 110C298.327 110 299.334 110.373 300.121 111.12C300.907 111.867 301.301 112.793 301.301 113.9V120H298.601ZM298.601 115.8V115.6L296.401 116C295.667 116.147 295.301 116.48 295.301 117C295.301 117.667 295.701 118 296.501 118C297.101 118 297.601 117.793 298.001 117.38C298.401 116.967 298.601 116.44 298.601 115.8Z" fill="white"/>
<path d="M175.8 215V202.4H171.4V201H181.7V202.4H177.3V215H175.8ZM189.702 212.3L190.602 213.2C190.349 213.547 190.009 213.88 189.582 214.2C188.649 214.867 187.656 215.2 186.602 215.2C185.282 215.2 184.149 214.713 183.202 213.74C182.269 212.767 181.802 211.587 181.802 210.2C181.802 208.813 182.269 207.633 183.202 206.66C184.136 205.687 185.236 205.2 186.502 205.2C187.822 205.2 188.916 205.653 189.782 206.56C190.662 207.467 191.102 208.613 191.102 210C191.102 210.067 191.082 210.24 191.042 210.52L191.002 210.72L183.202 210.7C183.256 211.567 183.609 212.32 184.262 212.96C184.929 213.587 185.709 213.9 186.602 213.9C187.416 213.9 188.182 213.633 188.902 213.1C189.249 212.82 189.516 212.553 189.702 212.3ZM183.202 209.5H189.702C189.596 208.633 189.242 207.92 188.642 207.36C188.056 206.787 187.342 206.5 186.502 206.5C185.662 206.5 184.929 206.793 184.302 207.38C183.676 207.967 183.309 208.673 183.202 209.5ZM201.256 213.76C200.309 214.72 199.156 215.2 197.796 215.2C196.436 215.2 195.276 214.72 194.316 213.76C193.369 212.787 192.896 211.6 192.896 210.2C192.896 208.8 193.369 207.62 194.316 206.66C195.276 205.687 196.436 205.2 197.796 205.2C199.156 205.2 200.309 205.687 201.256 206.66C202.216 207.62 202.696 208.8 202.696 210.2C202.696 211.6 202.216 212.787 201.256 213.76ZM195.316 212.82C196.009 213.54 196.836 213.9 197.796 213.9C198.756 213.9 199.576 213.547 200.256 212.84C200.949 212.12 201.296 211.24 201.296 210.2C201.296 209.16 200.949 208.287 200.256 207.58C199.576 206.86 198.756 206.5 197.796 206.5C196.836 206.5 196.009 206.86 195.316 207.58C194.636 208.287 194.296 209.16 194.296 210.2C194.296 211.227 194.636 212.1 195.316 212.82ZM205.198 219.2V205.4H206.598V206.8C206.824 206.493 207.098 206.227 207.418 206C208.138 205.467 208.964 205.2 209.898 205.2C211.218 205.2 212.331 205.673 213.238 206.62C214.144 207.567 214.598 208.76 214.598 210.2C214.598 211.64 214.144 212.833 213.238 213.78C212.331 214.727 211.218 215.2 209.898 215.2C208.964 215.2 208.138 214.933 207.418 214.4C207.098 214.173 206.824 213.907 206.598 213.6V219.2H205.198ZM209.898 213.9C210.818 213.9 211.598 213.553 212.238 212.86C212.878 212.167 213.198 211.28 213.198 210.2C213.198 209.12 212.878 208.233 212.238 207.54C211.598 206.847 210.818 206.5 209.898 206.5C209.031 206.5 208.264 206.86 207.598 207.58C206.931 208.3 206.598 209.173 206.598 210.2C206.598 211.227 206.931 212.1 207.598 212.82C208.264 213.54 209.031 213.9 209.898 213.9ZM224.292 212.3L225.192 213.2C224.939 213.547 224.599 213.88 224.172 214.2C223.239 214.867 222.246 215.2 221.192 215.2C219.872 215.2 218.739 214.713 217.792 213.74C216.859 212.767 216.392 211.587 216.392 210.2C216.392 208.813 216.859 207.633 217.792 206.66C218.726 205.687 219.826 205.2 221.092 205.2C222.412 205.2 223.506 205.653 224.372 206.56C225.252 207.467 225.692 208.613 225.692 210C225.692 210.067 225.672 210.24 225.632 210.52L225.592 210.72L217.792 210.7C217.846 211.567 218.199 212.32 218.852 212.96C219.519 213.587 220.299 213.9 221.192 213.9C222.006 213.9 222.772 213.633 223.492 213.1C223.839 212.82 224.106 212.553 224.292 212.3ZM217.792 209.5H224.292C224.186 208.633 223.832 207.92 223.232 207.36C222.646 206.787 221.932 206.5 221.092 206.5C220.252 206.5 219.519 206.793 218.892 207.38C218.266 207.967 217.899 208.673 217.792 209.5ZM230.191 215V206.7H226.791V205.4H234.991V206.7H231.591V215H230.191ZM236.995 215V205.4H238.395V212.6L244.195 205.4H245.395V215H243.995V207.8L238.195 215H236.995ZM254.796 215V211.1C254.556 211.247 254.303 211.38 254.036 211.5C253.449 211.767 252.803 211.9 252.096 211.9C251.003 211.9 250.109 211.56 249.416 210.88C248.736 210.187 248.396 209.293 248.396 208.2V205.4H249.796V208.2C249.796 208.907 250.016 209.487 250.456 209.94C250.909 210.38 251.489 210.6 252.196 210.6C252.849 210.6 253.483 210.453 254.096 210.16C254.363 210.013 254.596 209.86 254.796 209.7V205.4H256.196V215H254.796ZM266.597 212.3L267.497 213.2C267.244 213.547 266.904 213.88 266.477 214.2C265.544 214.867 264.55 215.2 263.497 215.2C262.177 215.2 261.044 214.713 260.097 213.74C259.164 212.767 258.697 211.587 258.697 210.2C258.697 208.813 259.164 207.633 260.097 206.66C261.03 205.687 262.13 205.2 263.397 205.2C264.717 205.2 265.81 205.653 266.677 206.56C267.557 207.467 267.997 208.613 267.997 210C267.997 210.067 267.977 210.24 267.937 210.52L267.897 210.72L260.097 210.7C260.15 211.567 260.504 212.32 261.157 212.96C261.824 213.587 262.604 213.9 263.497 213.9C264.31 213.9 265.077 213.633 265.797 213.1C266.144 212.82 266.41 212.553 266.597 212.3ZM260.097 209.5H266.597C266.49 208.633 266.137 207.92 265.537 207.36C264.95 206.787 264.237 206.5 263.397 206.5C262.557 206.5 261.824 206.793 261.197 207.38C260.57 207.967 260.204 208.673 260.097 209.5ZM277.591 212.3L278.591 213.2C278.324 213.533 277.971 213.867 277.531 214.2C276.597 214.867 275.617 215.2 274.591 215.2C273.271 215.2 272.137 214.713 271.191 213.74C270.257 212.767 269.791 211.587 269.791 210.2C269.791 208.813 270.257 207.633 271.191 206.66C272.137 205.687 273.271 205.2 274.591 205.2C275.631 205.2 276.591 205.52 277.471 206.16C277.831 206.427 278.171 206.74 278.491 207.1L277.491 208.1C277.277 207.807 277.031 207.54 276.751 207.3C276.111 206.767 275.391 206.5 274.591 206.5C273.671 206.5 272.871 206.86 272.191 207.58C271.524 208.287 271.191 209.16 271.191 210.2C271.191 211.24 271.524 212.12 272.191 212.84C272.871 213.547 273.671 213.9 274.591 213.9C275.351 213.9 276.091 213.633 276.811 213.1C277.117 212.847 277.377 212.58 277.591 212.3ZM280.784 215V205.4H282.184V210.5L286.984 205.4H288.684L284.984 209.3L289.084 215H287.484L284.084 210.3L282.184 212.3V215H280.784ZM296.486 215V213.7C296.286 213.98 296.033 214.233 295.726 214.46C295.019 214.953 294.239 215.2 293.386 215.2C292.413 215.2 291.599 214.92 290.946 214.36C290.306 213.787 289.986 213.133 289.986 212.4C289.986 210.773 290.919 209.807 292.786 209.5L296.486 208.9C296.486 208.193 296.259 207.62 295.806 207.18C295.366 206.727 294.793 206.5 294.086 206.5C293.393 206.5 292.733 206.733 292.106 207.2C291.813 207.453 291.573 207.687 291.386 207.9L290.486 207C290.739 206.667 291.053 206.367 291.426 206.1C292.239 205.5 293.126 205.2 294.086 205.2C295.179 205.2 296.086 205.553 296.806 206.26C297.526 206.967 297.886 207.847 297.886 208.9V215H296.486ZM296.486 210.7V210.1L293.186 210.7C291.986 210.913 291.386 211.48 291.386 212.4C291.386 212.827 291.559 213.187 291.906 213.48C292.266 213.76 292.759 213.9 293.386 213.9C294.306 213.9 295.053 213.607 295.626 213.02C296.199 212.433 296.486 211.66 296.486 210.7ZM300.277 215L302.477 211.5C302.117 211.393 301.783 211.213 301.477 210.96C300.81 210.4 300.477 209.613 300.477 208.6C300.477 207.68 300.797 206.92 301.437 206.32C302.09 205.707 302.937 205.4 303.977 205.4H308.077V215H306.677V211.8H303.877L301.877 215H300.277ZM303.977 210.5H306.677V206.7H303.977C303.337 206.7 302.823 206.873 302.437 207.22C302.063 207.567 301.877 208.027 301.877 208.6C301.877 209.173 302.063 209.633 302.437 209.98C302.823 210.327 303.337 210.5 303.977 210.5ZM321.28 215V211.1C321.04 211.247 320.787 211.38 320.52 211.5C319.934 211.767 319.287 211.9 318.58 211.9C317.487 211.9 316.594 211.56 315.9 210.88C315.22 210.187 314.88 209.293 314.88 208.2V205.4H316.28V208.2C316.28 208.907 316.5 209.487 316.94 209.94C317.394 210.38 317.974 210.6 318.68 210.6C319.334 210.6 319.967 210.453 320.58 210.16C320.847 210.013 321.08 209.86 321.28 209.7V205.4H322.68V215H321.28ZM331.681 215V213.7C331.481 213.98 331.228 214.233 330.921 214.46C330.215 214.953 329.435 215.2 328.581 215.2C327.608 215.2 326.795 214.92 326.141 214.36C325.501 213.787 325.181 213.133 325.181 212.4C325.181 210.773 326.115 209.807 327.981 209.5L331.681 208.9C331.681 208.193 331.455 207.62 331.001 207.18C330.561 206.727 329.988 206.5 329.281 206.5C328.588 206.5 327.928 206.733 327.301 207.2C327.008 207.453 326.768 207.687 326.581 207.9L325.681 207C325.935 206.667 326.248 206.367 326.621 206.1C327.435 205.5 328.321 205.2 329.281 205.2C330.375 205.2 331.281 205.553 332.001 206.26C332.721 206.967 333.081 207.847 333.081 208.9V215H331.681ZM331.681 210.7V210.1L328.381 210.7C327.181 210.913 326.581 211.48 326.581 212.4C326.581 212.827 326.755 213.187 327.101 213.48C327.461 213.76 327.955 213.9 328.581 213.9C329.501 213.9 330.248 213.607 330.821 213.02C331.395 212.433 331.681 211.66 331.681 210.7ZM343.372 212.3L344.372 213.2C344.105 213.533 343.752 213.867 343.312 214.2C342.379 214.867 341.399 215.2 340.372 215.2C339.052 215.2 337.919 214.713 336.972 213.74C336.039 212.767 335.572 211.587 335.572 210.2C335.572 208.813 336.039 207.633 336.972 206.66C337.919 205.687 339.052 205.2 340.372 205.2C341.412 205.2 342.372 205.52 343.252 206.16C343.612 206.427 343.952 206.74 344.272 207.1L343.272 208.1C343.059 207.807 342.812 207.54 342.532 207.3C341.892 206.767 341.172 206.5 340.372 206.5C339.452 206.5 338.652 206.86 337.972 207.58C337.305 208.287 336.972 209.16 336.972 210.2C336.972 211.24 337.305 212.12 337.972 212.84C338.652 213.547 339.452 213.9 340.372 213.9C341.132 213.9 341.872 213.633 342.592 213.1C342.899 212.847 343.159 212.58 343.372 212.3ZM348.765 215V206.7H345.365V205.4H353.565V206.7H350.165V215H348.765ZM355.569 215V205.4H356.969V208.6H359.469C360.562 208.6 361.415 208.893 362.029 209.48C362.655 210.053 362.969 210.827 362.969 211.8C362.969 212.773 362.655 213.553 362.029 214.14C361.415 214.713 360.569 215 359.489 215H355.569ZM356.969 213.7H359.489C360.129 213.7 360.635 213.527 361.009 213.18C361.382 212.82 361.569 212.36 361.569 211.8C361.569 211.227 361.375 210.767 360.989 210.42C360.615 210.073 360.109 209.9 359.469 209.9H356.969V213.7Z" fill="black"/>
<path d="M16.2 118.1L18.2 116.1C18.44 116.38 18.7133 116.633 19.02 116.86C19.7267 117.353 20.4533 117.6 21.2 117.6C21.96 117.6 22.5467 117.44 22.96 117.12C23.3867 116.787 23.6 116.38 23.6 115.9C23.6 115.42 23.4 115.02 23 114.7C22.6133 114.367 22.08 114.2 21.4 114.2H19.8V111.6H21.2C21.7867 111.6 22.2467 111.453 22.58 111.16C22.9267 110.853 23.1 110.467 23.1 110C23.1 109.533 22.9267 109.153 22.58 108.86C22.2467 108.553 21.7867 108.4 21.2 108.4C20.6133 108.4 20.0067 108.633 19.38 109.1C19.1133 109.327 18.8867 109.56 18.7 109.8L16.7 107.8C17.0733 107.387 17.4733 107.04 17.9 106.76C18.9533 106.053 20.1533 105.7 21.5 105.7C22.86 105.7 23.98 106.093 24.86 106.88C25.7533 107.653 26.2 108.56 26.2 109.6C26.2 110.547 25.8333 111.333 25.1 111.96C24.74 112.24 24.3733 112.453 24 112.6C24.5067 112.787 24.9533 113.033 25.34 113.34C26.2467 114.033 26.7 114.953 26.7 116.1C26.7 117.233 26.22 118.22 25.26 119.06C24.3 119.887 23.0467 120.3 21.5 120.3C20.0067 120.3 18.6867 119.933 17.54 119.2C17.02 118.88 16.5733 118.513 16.2 118.1ZM32.3839 116.32C32.9839 117.107 33.6906 117.5 34.5039 117.5C35.3172 117.5 36.0172 117.107 36.6039 116.32C37.2039 115.52 37.5039 114.413 37.5039 113C37.5039 111.587 37.2039 110.487 36.6039 109.7C36.0172 108.9 35.3172 108.5 34.5039 108.5C33.6906 108.5 32.9839 108.9 32.3839 109.7C31.7972 110.487 31.5039 111.587 31.5039 113C31.5039 114.413 31.7972 115.52 32.3839 116.32ZM38.7439 118.3C37.5839 119.633 36.1706 120.3 34.5039 120.3C32.8372 120.3 31.4172 119.633 30.2439 118.3C29.0839 116.953 28.5039 115.187 28.5039 113C28.5039 110.813 29.0839 109.053 30.2439 107.72C31.4172 106.373 32.8372 105.7 34.5039 105.7C36.1706 105.7 37.5839 106.373 38.7439 107.72C39.9172 109.053 40.5039 110.813 40.5039 113C40.5039 115.187 39.9172 116.953 38.7439 118.3ZM47.007 120V110.2H49.407L52.307 113.9L55.207 110.2H57.607V120H54.907V114.3L52.307 117.6L49.707 114.3V120H47.007ZM60.2102 120V110.2H62.9102V115.8L67.1102 110.2H69.5102V120H66.8102V114.4L62.6102 120H60.2102ZM72.1047 120V110.2H74.8047V113.8H78.5047V110.2H81.2047V120H78.5047V116.3H74.8047V120H72.1047ZM83.7639 119.74C83.4572 119.433 83.3039 119.053 83.3039 118.6C83.3039 118.147 83.4572 117.767 83.7639 117.46C84.0706 117.153 84.4506 117 84.9039 117C85.3572 117 85.7372 117.153 86.0439 117.46C86.3506 117.767 86.5039 118.147 86.5039 118.6C86.5039 119.053 86.3506 119.433 86.0439 119.74C85.7372 120.047 85.3572 120.2 84.9039 120.2C84.4506 120.2 84.0706 120.047 83.7639 119.74Z" fill="white"/>
<path d="M0 25V20.6H0.8C1.28 20.1067 1.69333 19.48 2.04 18.72C2.88 16.9067 3.3 14.7333 3.3 12.2V8H11.9V20.6H13.6V25H12.1V22H1.5V25H0ZM2.4 20.6H10.4V9.4H4.8V12.2C4.8 14.76 4.4 16.92 3.6 18.68C3.25333 19.4533 2.85333 20.0933 2.4 20.6ZM23.4592 20.76C22.5126 21.72 21.3592 22.2 19.9992 22.2C18.6392 22.2 17.4792 21.72 16.5192 20.76C15.5726 19.7867 15.0992 18.6 15.0992 17.2C15.0992 15.8 15.5726 14.62 16.5192 13.66C17.4792 12.6867 18.6392 12.2 19.9992 12.2C21.3592 12.2 22.5126 12.6867 23.4592 13.66C24.4192 14.62 24.8992 15.8 24.8992 17.2C24.8992 18.6 24.4192 19.7867 23.4592 20.76ZM17.5192 19.82C18.2126 20.54 19.0392 20.9 19.9992 20.9C20.9592 20.9 21.7792 20.5467 22.4592 19.84C23.1526 19.12 23.4992 18.24 23.4992 17.2C23.4992 16.16 23.1526 15.2867 22.4592 14.58C21.7792 13.86 20.9592 13.5 19.9992 13.5C19.0392 13.5 18.2126 13.86 17.5192 14.58C16.8392 15.2867 16.4992 16.16 16.4992 17.2C16.4992 18.2267 16.8392 19.1 17.5192 19.82ZM27.4008 22V12.4H28.5008L32.3008 17.2L36.1008 12.4H37.2008V22H35.8008V14.9L32.3008 19.3L28.8008 14.9V22H27.4008ZM46.2086 22V20.7C46.0086 20.98 45.7553 21.2333 45.4486 21.46C44.7419 21.9533 43.9619 22.2 43.1086 22.2C42.1353 22.2 41.3219 21.92 40.6686 21.36C40.0286 20.7867 39.7086 20.1333 39.7086 19.4C39.7086 17.7733 40.6419 16.8067 42.5086 16.5L46.2086 15.9C46.2086 15.1933 45.9819 14.62 45.5286 14.18C45.0886 13.7267 44.5153 13.5 43.8086 13.5C43.1153 13.5 42.4553 13.7333 41.8286 14.2C41.5353 14.4533 41.2953 14.6867 41.1086 14.9L40.2086 14C40.4619 13.6667 40.7753 13.3667 41.1486 13.1C41.9619 12.5 42.8486 12.2 43.8086 12.2C44.9019 12.2 45.8086 12.5533 46.5286 13.26C47.2486 13.9667 47.6086 14.8467 47.6086 15.9V22H46.2086ZM46.2086 17.7V17.1L42.9086 17.7C41.7086 17.9133 41.1086 18.48 41.1086 19.4C41.1086 19.8267 41.2819 20.1867 41.6286 20.48C41.9886 20.76 42.4819 20.9 43.1086 20.9C44.0286 20.9 44.7753 20.6067 45.3486 20.02C45.9219 19.4333 46.2086 18.66 46.2086 17.7ZM50.7992 22V12.4H52.1992V20.7H56.2992V12.4H57.7192V20.7H61.7992V12.4H63.1992V22H50.7992ZM66.4047 22V12.4H67.8047V16.5H73.3047V12.4H74.7047V22H73.3047V17.8H67.8047V22H66.4047ZM85.1086 19.3L86.0086 20.2C85.7553 20.5467 85.4153 20.88 84.9886 21.2C84.0553 21.8667 83.0619 22.2 82.0086 22.2C80.6886 22.2 79.5553 21.7133 78.6086 20.74C77.6753 19.7667 77.2086 18.5867 77.2086 17.2C77.2086 15.8133 77.6753 14.6333 78.6086 13.66C79.5419 12.6867 80.6419 12.2 81.9086 12.2C83.2286 12.2 84.3219 12.6533 85.1886 13.56C86.0686 14.4667 86.5086 15.6133 86.5086 17C86.5086 17.0667 86.4886 17.24 86.4486 17.52L86.4086 17.72L78.6086 17.7C78.6619 18.5667 79.0153 19.32 79.6686 19.96C80.3353 20.5867 81.1153 20.9 82.0086 20.9C82.8219 20.9 83.5886 20.6333 84.3086 20.1C84.6553 19.82 84.9219 19.5533 85.1086 19.3ZM78.6086 16.5H85.1086C85.0019 15.6333 84.6486 14.92 84.0486 14.36C83.4619 13.7867 82.7486 13.5 81.9086 13.5C81.0686 13.5 80.3353 13.7933 79.7086 14.38C79.0819 14.9667 78.7153 15.6733 78.6086 16.5ZM96.2023 19.3L97.1023 20.2C96.849 20.5467 96.509 20.88 96.0823 21.2C95.149 21.8667 94.1557 22.2 93.1023 22.2C91.7823 22.2 90.649 21.7133 89.7023 20.74C88.769 19.7667 88.3023 18.5867 88.3023 17.2C88.3023 15.8133 88.769 14.6333 89.7023 13.66C90.6357 12.6867 91.7357 12.2 93.0023 12.2C94.3223 12.2 95.4157 12.6533 96.2823 13.56C97.1623 14.4667 97.6023 15.6133 97.6023 17C97.6023 17.0667 97.5823 17.24 97.5423 17.52L97.5023 17.72L89.7023 17.7C89.7557 18.5667 90.109 19.32 90.7623 19.96C91.429 20.5867 92.209 20.9 93.1023 20.9C93.9157 20.9 94.6823 20.6333 95.4023 20.1C95.749 19.82 96.0157 19.5533 96.2023 19.3ZM89.7023 16.5H96.2023C96.0957 15.6333 95.7423 14.92 95.1423 14.36C94.5557 13.7867 93.8423 13.5 93.0023 13.5C92.1623 13.5 91.429 13.7933 90.8023 14.38C90.1757 14.9667 89.809 15.6733 89.7023 16.5ZM103.195 20.5L104.095 19.6C104.309 19.8667 104.549 20.0867 104.815 20.26C105.429 20.6867 106.089 20.9 106.795 20.9C107.555 20.9 108.129 20.7533 108.515 20.46C108.902 20.1667 109.095 19.78 109.095 19.3C109.095 18.82 108.902 18.4333 108.515 18.14C108.129 17.8467 107.555 17.7 106.795 17.7H105.695V16.4H106.795C107.369 16.4 107.829 16.2533 108.175 15.96C108.522 15.6667 108.695 15.3133 108.695 14.9C108.695 14.4867 108.535 14.1533 108.215 13.9C107.895 13.6333 107.422 13.5 106.795 13.5C106.142 13.5 105.555 13.6867 105.035 14.06C104.782 14.2333 104.569 14.4133 104.395 14.6L103.395 13.6C103.595 13.3867 103.889 13.1533 104.275 12.9C105.075 12.4333 105.915 12.2 106.795 12.2C107.755 12.2 108.542 12.4733 109.155 13.02C109.782 13.5533 110.095 14.18 110.095 14.9C110.095 15.6333 109.842 16.2 109.335 16.6C109.109 16.7867 108.862 16.92 108.595 17C108.929 17.08 109.242 17.2133 109.535 17.4C110.175 17.8267 110.495 18.46 110.495 19.3C110.495 20.1 110.169 20.7867 109.515 21.36C108.875 21.92 107.969 22.2 106.795 22.2C105.822 22.2 104.922 21.92 104.095 21.36C103.749 21.1067 103.449 20.82 103.195 20.5ZM118.904 22V20.7C118.704 20.98 118.451 21.2333 118.144 21.46C117.437 21.9533 116.657 22.2 115.804 22.2C114.831 22.2 114.017 21.92 113.364 21.36C112.724 20.7867 112.404 20.1333 112.404 19.4C112.404 17.7733 113.337 16.8067 115.204 16.5L118.904 15.9C118.904 15.1933 118.677 14.62 118.224 14.18C117.784 13.7267 117.211 13.5 116.504 13.5C115.811 13.5 115.151 13.7333 114.524 14.2C114.231 14.4533 113.991 14.6867 113.804 14.9L112.904 14C113.157 13.6667 113.471 13.3667 113.844 13.1C114.657 12.5 115.544 12.2 116.504 12.2C117.597 12.2 118.504 12.5533 119.224 13.26C119.944 13.9667 120.304 14.8467 120.304 15.9V22H118.904ZM118.904 17.7V17.1L115.604 17.7C114.404 17.9133 113.804 18.48 113.804 19.4C113.804 19.8267 113.977 20.1867 114.324 20.48C114.684 20.76 115.177 20.9 115.804 20.9C116.724 20.9 117.471 20.6067 118.044 20.02C118.617 19.4333 118.904 18.66 118.904 17.7ZM121.895 24.4V20.7H122.595C122.915 20.3667 123.195 19.9267 123.435 19.38C124.008 18.1533 124.295 16.76 124.295 15.2V12.4H130.895V20.7H132.395V24.4H130.995V22H123.295V24.4H121.895ZM124.095 20.7H129.495V13.7H125.695V15.2C125.695 16.7067 125.428 18.0867 124.895 19.34C124.655 19.8733 124.388 20.3267 124.095 20.7ZM140.388 22V20.7C140.188 20.98 139.935 21.2333 139.628 21.46C138.922 21.9533 138.142 22.2 137.288 22.2C136.315 22.2 135.502 21.92 134.848 21.36C134.208 20.7867 133.888 20.1333 133.888 19.4C133.888 17.7733 134.822 16.8067 136.688 16.5L140.388 15.9C140.388 15.1933 140.162 14.62 139.708 14.18C139.268 13.7267 138.695 13.5 137.988 13.5C137.295 13.5 136.635 13.7333 136.008 14.2C135.715 14.4533 135.475 14.6867 135.288 14.9L134.388 14C134.642 13.6667 134.955 13.3667 135.328 13.1C136.142 12.5 137.028 12.2 137.988 12.2C139.082 12.2 139.988 12.5533 140.708 13.26C141.428 13.9667 141.788 14.8467 141.788 15.9V22H140.388ZM140.388 17.7V17.1L137.088 17.7C135.888 17.9133 135.288 18.48 135.288 19.4C135.288 19.8267 135.462 20.1867 135.808 20.48C136.168 20.76 136.662 20.9 137.288 20.9C138.208 20.9 138.955 20.6067 139.528 20.02C140.102 19.4333 140.388 18.66 140.388 17.7ZM144.979 22V12.4H146.379V16.5H151.879V12.4H153.279V22H151.879V17.8H146.379V22H144.979ZM156.483 22V12.4H157.883V19.6L163.683 12.4H164.883V22H163.483V14.8L157.683 22H156.483ZM175.284 19.3L176.184 20.2C175.931 20.5467 175.591 20.88 175.164 21.2C174.231 21.8667 173.238 22.2 172.184 22.2C170.864 22.2 169.731 21.7133 168.784 20.74C167.851 19.7667 167.384 18.5867 167.384 17.2C167.384 15.8133 167.851 14.6333 168.784 13.66C169.718 12.6867 170.818 12.2 172.084 12.2C173.404 12.2 174.498 12.6533 175.364 13.56C176.244 14.4667 176.684 15.6133 176.684 17C176.684 17.0667 176.664 17.24 176.624 17.52L176.584 17.72L168.784 17.7C168.838 18.5667 169.191 19.32 169.844 19.96C170.511 20.5867 171.291 20.9 172.184 20.9C172.998 20.9 173.764 20.6333 174.484 20.1C174.831 19.82 175.098 19.5533 175.284 19.3ZM168.784 16.5H175.284C175.178 15.6333 174.824 14.92 174.224 14.36C173.638 13.7867 172.924 13.5 172.084 13.5C171.244 13.5 170.511 13.7933 169.884 14.38C169.258 14.9667 168.891 15.6733 168.784 16.5Z" fill="black"/>
<path fill-rule="evenodd" clip-rule="evenodd" d="M1067 95.7887V157H827.582C830.241 152.997 833.386 149.269 837.102 145.876C854.205 130.263 877.71 132.074 901.849 133.935C918.05 135.183 934.536 136.454 949.565 132.494C963.738 128.76 976.396 120.464 988.879 112.283L988.884 112.28C1006.32 100.854 1023.41 89.6529 1043.8 91.4142C1051.62 92.0894 1059.4 93.5748 1067 95.7887Z" fill="#C4C4C4"/>
<path fill-rule="evenodd" clip-rule="evenodd" d="M1067 95.7887V157H827.582C830.241 152.997 833.386 149.269 837.102 145.876C854.205 130.263 877.71 132.074 901.849 133.935C918.05 135.183 934.536 136.454 949.565 132.494C963.738 128.76 976.396 120.464 988.879 112.283L988.884 112.28C1006.32 100.854 1023.41 89.6529 1043.8 91.4142C1051.62 92.0894 1059.4 93.5748 1067 95.7887Z" fill="url(#paint3_linear)"/>
<path opacity="0.5" d="M30 80.5C30 75.2533 34.2533 71 39.5 71H1240.5C1245.75 71 1250 75.2533 1250 80.5C1250 85.7467 1245.75 90 1240.5 90H39.5C34.2533 90 30 85.7467 30 80.5Z" fill="url(#paint4_linear)"/>
<defs>
<linearGradient id="paint0_linear" x1="25.4754" y1="66" x2="25.4754" y2="157" gradientUnits="userSpaceOnUse">
<stop stop-color="#A22CEA"/>
<stop offset="1" stop-color="#7000FF"/>
</linearGradient>
<linearGradient id="paint1_linear" x1="189.823" y1="66" x2="189.823" y2="184.147" gradientUnits="userSpaceOnUse">
<stop stop-color="#216CFF"/>
<stop offset="1" stop-color="#2400FF"/>
</linearGradient>
<linearGradient id="paint2_linear" x1="579.852" y1="66" x2="579.852" y2="157" gradientUnits="userSpaceOnUse">
<stop stop-color="#A22CEA"/>
<stop offset="1" stop-color="#7000FF"/>
</linearGradient>
<linearGradient id="paint3_linear" x1="889.549" y1="91.2305" x2="889.549" y2="180.298" gradientUnits="userSpaceOnUse">
<stop stop-color="#CF2CEA"/>
<stop offset="1" stop-color="#2400FF"/>
</linearGradient>
<linearGradient id="paint4_linear" x1="640" y1="16" x2="640" y2="90" gradientUnits="userSpaceOnUse">
<stop stop-color="white"/>
<stop offset="1" stop-color="white" stop-opacity="0"/>
</linearGradient>
</defs>
</svg>
