<svg width="59" height="54" viewBox="0 0 59 54" fill="none" xmlns="http://www.w3.org/2000/svg">
<path d="M24.0005 53H38.0005C38.9574 53 39.314 51.7451 38.5 51.2419L38.103 50.9965C36.0169 49.7069 34.0009 48.2896 34.0009 45.5V45V39H26.0007V45V45.5C26.0317 48.2896 25.9841 49.7069 23.898 50.9965L23.501 51.2419C22.687 51.7451 23.0436 53 24.0005 53Z" fill="url(#paint0_linear)"/>
<path d="M36 39V45V45.5C36 48.2896 38.0159 49.7069 40.1021 50.9965L40.499 51.2419C41.313 51.7451 40.9564 53 39.9995 53H18.9995C18.0426 53 17.6861 51.7451 18.5 51.2419L18.897 50.9965C20.9831 49.7069 23.0307 48.2896 22.9998 45.5V45V39" stroke="black" stroke-width="2"/>
<path fill-rule="evenodd" clip-rule="evenodd" d="M8 4C6.34315 4 5 5.34315 5 7V36C5 37.6569 6.34314 39 8 39H14V37C14 32.5817 17.5817 29 22 29H37C41.4183 29 45 32.5817 45 37V39H55C56.6569 39 58 37.6569 58 36V7C58 5.34315 56.6569 4 55 4H8ZM38 15.5V16.5C38 21.1944 34.1944 25 29.5 25C24.8056 25 21 21.1944 21 16.5V15.5C21 10.8056 24.8056 7 29.5 7C34.1944 7 38 10.8056 38 15.5Z" fill="#C4C4C4"/>
<path fill-rule="evenodd" clip-rule="evenodd" d="M8 4C6.34315 4 5 5.34315 5 7V36C5 37.6569 6.34314 39 8 39H14V37C14 32.5817 17.5817 29 22 29H37C41.4183 29 45 32.5817 45 37V39H55C56.6569 39 58 37.6569 58 36V7C58 5.34315 56.6569 4 55 4H8ZM38 15.5V16.5C38 21.1944 34.1944 25 29.5 25C24.8056 25 21 21.1944 21 16.5V15.5C21 10.8056 24.8056 7 29.5 7C34.1944 7 38 10.8056 38 15.5Z" fill="url(#paint1_linear)"/>
<rect x="1" y="1" width="57" height="38" rx="3" stroke="black" stroke-width="2"/>
<path d="M37 29H22C17.5817 29 14 32.5817 14 37V39H45V37C45 32.5817 41.4183 29 37 29Z" stroke="black" stroke-width="2"/>
<path d="M38 16.5V15.5C38 10.8056 34.1944 7 29.5 7C24.8056 7 21 10.8056 21 15.5V16.5C21 21.1944 24.8056 25 29.5 25C34.1944 25 38 21.1944 38 16.5Z" stroke="black" stroke-width="2"/>
<defs>
<linearGradient id="paint0_linear" x1="26.5132" y1="34.429" x2="26.5132" y2="52.9995" gradientUnits="userSpaceOnUse">
<stop stop-color="#2CA5EA"/>
<stop offset="1" stop-color="#00C2FF"/>
</linearGradient>
<linearGradient id="paint1_linear" x1="14.9287" y1="-8.428" x2="14.9287" y2="39.4713" gradientUnits="userSpaceOnUse">
<stop stop-color="#A22CEA"/>
<stop offset="1" stop-color="#7000FF"/>
</linearGradient>
</defs>
</svg>
