<svg width="240" height="66" viewBox="0 0 240 66" fill="none" xmlns="http://www.w3.org/2000/svg">
<path fill-rule="evenodd" clip-rule="evenodd" d="M240 4.78867V66.0001H0.582031C3.24121 61.9972 6.38562 58.2691 10.1023 54.8761C27.2046 39.2628 50.7096 41.0743 74.8491 42.9347C91.0498 44.1832 107.536 45.4537 122.565 41.4942C136.738 37.7599 149.396 29.464 161.879 21.2833L161.884 21.2804C179.318 9.8541 196.409 -1.34708 216.802 0.414154C224.622 1.08945 232.401 2.5748 240 4.78867Z" fill="#C4C4C4"/>
<path fill-rule="evenodd" clip-rule="evenodd" d="M240 4.78867V66.0001H0.582031C3.24121 61.9972 6.38562 58.2691 10.1023 54.8761C27.2046 39.2628 50.7096 41.0743 74.8491 42.9347C91.0498 44.1832 107.536 45.4537 122.565 41.4942C136.738 37.7599 149.396 29.464 161.879 21.2833L161.884 21.2804C179.318 9.8541 196.409 -1.34708 216.802 0.414154C224.622 1.08945 232.401 2.5748 240 4.78867Z" fill="url(#paint0_linear)"/>
<defs>
<linearGradient id="paint0_linear" x1="62.5485" y1="0.230469" x2="62.5485" y2="89.2978" gradientUnits="userSpaceOnUse">
<stop stop-color="#CF2CEA"/>
<stop offset="1" stop-color="#2400FF"/>
</linearGradient>
</defs>
</svg>
