<svg width="59" height="64" viewBox="0 0 59 64" fill="none" xmlns="http://www.w3.org/2000/svg">
<path d="M21 34H38C40.7614 34 43 31.7614 43 29V24H55C56.6569 24 58 25.3431 58 27V49C58 51.7614 55.7614 54 53 54H51C50.4477 54 50 54.4477 50 55V61C50 61.824 49.0592 62.2944 48.4 61.8L38.2667 54.2C38.0936 54.0702 37.883 54 37.6667 54H22C20.3431 54 19 52.6569 19 51V35.75L21 34Z" fill="url(#paint0_linear)"/>
<path d="M40 4H6C4.89543 4 4 4.89543 4 6V31C4 32.6569 5.34315 34 7 34H8C8.55228 34 9 34.4477 9 35V41C9 41.824 9.94076 42.2944 10.6 41.8L20.7333 34.2C20.9064 34.0702 21.117 34 21.3333 34H38C40.7614 34 43 31.7614 43 29V7C43 5.34315 41.6569 4 40 4Z" fill="url(#paint1_linear)"/>
<path d="M43 21H53C55.7614 21 58 23.2386 58 26V49C58 51.7614 55.7614 54 53 54H51C50.4477 54 50 54.4477 50 55V61C50 61.824 49.0592 62.2944 48.4 61.8L38.2667 54.2C38.0936 54.0702 37.883 54 37.6667 54H21C18.2386 54 16 51.7614 16 49V37.75M10.6 41.8L20.7333 34.2C20.9064 34.0702 21.117 34 21.3333 34H38C40.7614 34 43 31.7614 43 29V6C43 3.23858 40.7614 1 38 1H6C3.23858 1 1 3.23858 1 6V29C1 31.7614 3.23858 34 6 34H8C8.55228 34 9 34.4477 9 35V41C9 41.824 9.94076 42.2944 10.6 41.8Z" stroke="black" stroke-width="2"/>
<defs>
<linearGradient id="paint0_linear" x1="53.3006" y1="-0.577161" x2="53.3006" y2="69.4929" gradientUnits="userSpaceOnUse">
<stop stop-color="#2CA5EA"/>
<stop offset="1" stop-color="#00C2FF"/>
</linearGradient>
<linearGradient id="paint1_linear" x1="8.86801" y1="-13.9136" x2="8.86801" y2="43.5655" gradientUnits="userSpaceOnUse">
<stop stop-color="#A22CEA"/>
<stop offset="1" stop-color="#7000FF"/>
</linearGradient>
</defs>
</svg>
