<svg width="13" height="16" viewBox="0 0 13 16" fill="none" xmlns="http://www.w3.org/2000/svg">
<path fill-rule="evenodd" clip-rule="evenodd" d="M2 4.5C2 2.01472 4.01472 0 6.5 0C8.98528 0 11 2.01472 11 4.5V6C12.1046 6 13 6.89543 13 8V14C13 15.1046 12.1046 16 11 16H2C0.895431 16 0 15.1046 0 14V8C0 6.89543 0.895431 6 2 6V4.5ZM4 6H9V4.5C9 3.11929 7.88071 2 6.5 2C5.11929 2 4 3.11929 4 4.5V6Z" fill="url(#paint0_linear)"/>
<defs>
<linearGradient id="paint0_linear" x1="3.10481" y1="0" x2="3.10481" y2="16" gradientUnits="userSpaceOnUse">
<stop stop-color="#A22CEA"/>
<stop offset="1" stop-color="#7000FF"/>
</linearGradient>
</defs>
</svg>
