<svg width="1281" height="91" viewBox="0 0 1281 91" fill="none" xmlns="http://www.w3.org/2000/svg">
<path d="M0 45.5C0 20.371 20.371 0 45.5 0H107V91H45.5C20.371 91 0 70.629 0 45.5Z" fill="#C4C4C4"/>
<path d="M0 45.5C0 20.371 20.371 0 45.5 0H107V91H45.5C20.371 91 0 70.629 0 45.5Z" fill="url(#paint0_linear)"/>
<rect x="107" width="320" height="91" fill="#A4A4A4"/>
<rect x="107" width="320" height="91" fill="#216CFF"/>
<path fill-rule="evenodd" clip-rule="evenodd" d="M427 6.80402V0H107V87.2426C130.085 79.1019 151.748 64.9047 173.671 50.5363L173.673 50.535C199.574 33.5606 225.839 16.3474 255.245 8.59943C286.424 0.384238 320.628 3.0203 354.239 5.61072C379.324 7.54408 404.079 9.45197 427 6.80402Z" fill="#216CFF"/>
<path fill-rule="evenodd" clip-rule="evenodd" d="M427 6.80402V0H107V87.2426C130.085 79.1019 151.748 64.9047 173.671 50.5363L173.673 50.535C199.574 33.5606 225.839 16.3474 255.245 8.59943C286.424 0.384238 320.628 3.0203 354.239 5.61072C379.324 7.54408 404.079 9.45197 427 6.80402Z" fill="url(#paint1_linear)"/>
<rect x="427" width="640" height="91" fill="#828282"/>
<rect x="427" width="640" height="91" fill="url(#paint2_linear)"/>
<path d="M1067 0H1234.83C1259.96 0 1280.33 20.371 1280.33 45.5C1280.33 70.629 1259.96 91 1234.83 91H1067V0Z" fill="#A4A4A4"/>
<path d="M1067 0H1234.83C1259.96 0 1280.33 20.371 1280.33 45.5C1280.33 70.629 1259.96 91 1234.83 91H1067V0Z" fill="#216CFF"/>
<defs>
<linearGradient id="paint0_linear" x1="25.4754" y1="0" x2="25.4754" y2="91" gradientUnits="userSpaceOnUse">
<stop stop-color="#A22CEA"/>
<stop offset="1" stop-color="#7000FF"/>
</linearGradient>
<linearGradient id="paint1_linear" x1="189.823" y1="0" x2="189.823" y2="118.147" gradientUnits="userSpaceOnUse">
<stop stop-color="#216CFF"/>
<stop offset="1" stop-color="#2400FF"/>
</linearGradient>
<linearGradient id="paint2_linear" x1="579.852" y1="0" x2="579.852" y2="91" gradientUnits="userSpaceOnUse">
<stop stop-color="#A22CEA"/>
<stop offset="1" stop-color="#7000FF"/>
</linearGradient>
</defs>
</svg>
