<svg width="50" height="50" viewBox="0 0 50 50" fill="none" xmlns="http://www.w3.org/2000/svg">
<path d="M25 0C11.1928 0 0 11.1928 0 25C0 38.8072 11.1928 50 25 50C38.8072 50 50 38.8072 50 25C50 11.1928 38.8072 0 25 0Z" fill="#40B3E0"/>
<path d="M37.1645 14.3816L32.699 36.8951C32.699 36.8951 32.0746 38.4564 30.3572 37.707L20.0529 29.807L16.3061 27.9961L9.99864 25.8726C9.99864 25.8726 9.03067 25.5293 8.93692 24.7799C8.84317 24.0304 10.0299 23.6246 10.0299 23.6246L35.1033 13.7887C35.1033 13.7887 37.1643 12.8832 37.1643 14.382" fill="white"/>
<path d="M19.2617 36.642C19.2617 36.642 18.9609 36.6139 18.5859 35.4271C18.2115 34.2406 16.3066 27.9957 16.3066 27.9957L31.4508 18.3785C31.4508 18.3785 32.3252 17.8477 32.2939 18.3785C32.2939 18.3785 32.45 18.4723 31.9814 18.9094C31.5133 19.3467 20.085 29.6195 20.085 29.6195" fill="#D2E5F1"/>
<path d="M24.0045 32.8344L19.9289 36.5504C19.9289 36.5504 19.6102 36.7922 19.2617 36.6406L20.0422 29.7383" fill="#B5CFE4"/>
</svg>
