<svg width="137" height="137" viewBox="0 0 137 137" fill="none" xmlns="http://www.w3.org/2000/svg">
<path fill-rule="evenodd" clip-rule="evenodd" d="M0.00224229 74.9076C0.201663 53.8755 15.2295 38.014 30.2253 24.6053C45.6964 10.7715 63.2773 -3.25525 83.0268 0.669476C103.529 4.74371 117.911 23.5913 127.037 43.8442C136.223 64.2281 141.697 88.4759 131.533 108.311C121.817 127.274 99.9155 131.877 80.1237 135.401C62.2945 138.575 44.0713 137.703 29.2589 126.519C13.1573 114.362 -0.199008 96.1326 0.00224229 74.9076Z" fill="#C4C4C4"/>
<path fill-rule="evenodd" clip-rule="evenodd" d="M0.00224229 74.9076C0.201663 53.8755 15.2295 38.014 30.2253 24.6053C45.6964 10.7715 63.2773 -3.25525 83.0268 0.669476C103.529 4.74371 117.911 23.5913 127.037 43.8442C136.223 64.2281 141.697 88.4759 131.533 108.311C121.817 127.274 99.9155 131.877 80.1237 135.401C62.2945 138.575 44.0713 137.703 29.2589 126.519C13.1573 114.362 -0.199008 96.1326 0.00224229 74.9076Z" fill="url(#paint0_linear)"/>
<defs>
<linearGradient id="paint0_linear" x1="-1.43023e-06" y1="104.28" x2="137" y2="104.28" gradientUnits="userSpaceOnUse">
<stop stop-color="#A22CEA"/>
<stop offset="1" stop-color="#7000FF"/>
</linearGradient>
</defs>
</svg>
