<svg width="28" height="24" viewBox="0 0 28 24" fill="none" xmlns="http://www.w3.org/2000/svg">
<path d="M0.919922 21.4885V15.7925L7.60792 11.4725C8.58926 10.8325 9.35726 10.1499 9.91192 9.42453C10.4879 8.67787 10.7759 7.98453 10.7759 7.34453C10.7759 5.31787 9.69859 4.30453 7.54392 4.30453C6.60526 4.30453 5.46392 4.46453 4.11992 4.78453C2.79726 5.0832 1.73059 5.44587 0.919922 5.87253V1.61653C2.94659 0.635198 5.29325 0.144531 7.95992 0.144531C10.3919 0.144531 12.2266 0.709865 13.4639 1.84053C14.7226 2.94987 15.3519 4.6032 15.3519 6.80053C15.3519 8.4432 14.9786 9.8512 14.2319 11.0245C13.5066 12.1765 12.2479 13.3499 10.4559 14.5445L7.60792 16.1765L3.41592 17.3285H15.3839V21.4885H0.919922Z" fill="#216CFF"/>
<path d="M23.1044 23.3125L19.1684 19.2805L23.1044 15.3445L27.1364 19.2805L23.1044 23.3125Z" fill="#216CFF"/>
</svg>
