<svg width="74" height="68" viewBox="0 0 74 68" fill="none" xmlns="http://www.w3.org/2000/svg">
<path d="M2.25988 39.662C0.420844 39.662 -0.44336 37.389 0.931151 36.1672L36.3351 0.252591C36.714 -0.0841967 37.285 -0.0841971 37.6638 0.25259L73.0678 36.1672C74.4423 37.389 73.5781 39.662 71.7391 39.662H63.9995C62.8949 39.662 61.9995 40.5575 61.9995 41.662V65.662C61.9995 66.7666 61.104 67.662 59.9995 67.662H13.9995C12.8949 67.662 11.9995 66.7666 11.9995 65.662V41.662C11.9995 40.5575 11.104 39.662 9.99948 39.662H2.25988Z" fill="#C4C4C4"/>
<path d="M2.25988 39.662C0.420844 39.662 -0.44336 37.389 0.931151 36.1672L36.3351 0.252591C36.714 -0.0841967 37.285 -0.0841971 37.6638 0.25259L73.0678 36.1672C74.4423 37.389 73.5781 39.662 71.7391 39.662H63.9995C62.8949 39.662 61.9995 40.5575 61.9995 41.662V65.662C61.9995 66.7666 61.104 67.662 59.9995 67.662H13.9995C12.8949 67.662 11.9995 66.7666 11.9995 65.662V41.662C11.9995 40.5575 11.104 39.662 9.99948 39.662H2.25988Z" fill="url(#paint0_linear)"/>
<defs>
<linearGradient id="paint0_linear" x1="-4.74414" y1="92.662" x2="-4.74414" y2="1.51274e-08" gradientUnits="userSpaceOnUse">
<stop stop-color="#EB9413"/>
<stop offset="1" stop-color="#FFE600"/>
</linearGradient>
</defs>
</svg>
