<svg width="44" height="30" viewBox="0 0 44 30" fill="none" xmlns="http://www.w3.org/2000/svg">
<g filter="url(#filter0_d)">
<path fill-rule="evenodd" clip-rule="evenodd" d="M21.0655 0.231828C21.6502 -0.0772757 22.35 -0.0772761 22.9348 0.231828L41.5408 10.0669C42.251 10.4423 42.251 11.4596 41.5408 11.8351L22.9348 21.6701C22.35 21.9792 21.6502 21.9792 21.0655 21.6701L2.45943 11.8351C1.7492 11.4596 1.7492 10.4423 2.45943 10.0669L21.0655 0.231828ZM8.00012 16.1391V22.8334C8.00012 23.4435 8.30966 24.0173 8.84219 24.3354C16.9161 29.1579 27.0842 29.1579 35.158 24.3354C35.6906 24.0173 36.0001 23.4435 36.0001 22.8334V16.1391L23.0493 22.9848C22.3929 23.332 21.6074 23.332 20.9509 22.9848L8.00012 16.1391ZM39.0003 14.4516V22.7893L37.6129 26.9516H42.3878L41.0003 22.7893V13.4516L39.0003 14.4516Z" fill="white"/>
</g>
<defs>
<filter id="filter0_d" x="0.926758" y="0" width="42.461" height="29.9523" filterUnits="userSpaceOnUse" color-interpolation-filters="sRGB">
<feFlood flood-opacity="0" result="BackgroundImageFix"/>
<feColorMatrix in="SourceAlpha" type="matrix" values="0 0 0 0 0 0 0 0 0 0 0 0 0 0 0 0 0 0 127 0"/>
<feOffset dy="1"/>
<feGaussianBlur stdDeviation="0.5"/>
<feColorMatrix type="matrix" values="0 0 0 0 0.6625 0 0 0 0 0.524479 0 0 0 0 0 0 0 0 1 0"/>
<feBlend mode="normal" in2="BackgroundImageFix" result="effect1_dropShadow"/>
<feBlend mode="normal" in="SourceGraphic" in2="effect1_dropShadow" result="shape"/>
</filter>
</defs>
</svg>
